#N canvas 593 88 1271 674 12;
#X obj 170 40 openpanel;
#X msg 170 98 open \$1;
#X obj 170 17 bng 15 250 50 0 empty empty empty 17 7 0 10 -262144 -1
-1;
#X msg 170 154 1;
#X obj 161 454 dac~;
#X msg 216 156 0;
#X obj 170 212 readsf~ 2;
#X obj 506 92 bng 15 250 50 0 empty empty empty 17 7 0 10 -262144 -1
-1;
#X obj 506 124 spigot;
#X obj 545 91 tgl 15 0 empty empty empty 17 7 0 10 -262144 -1 -1 1
1;
#X msg 674 530 start;
#X msg 728 531 stop;
#X obj 429 600 writesf~ 2;
#X obj 598 437 bng 15 250 50 0 empty empty empty 17 7 0 10 -262144
-1 -1;
#X obj 598 481 savepanel;
#X msg 598 532 open \$1;
#N canvas 1050 93 450 300 midside 0;
#X obj 76 129 +~;
#X obj 151 134 -~;
#X obj 74 57 inlet~;
#X obj 163 59 inlet~;
#X obj 77 196 *~ 0.707;
#X obj 152 195 *~ 0.707;
#X obj 77 253 outlet~;
#X obj 153 252 outlet~;
#X connect 0 0 4 0;
#X connect 1 0 5 0;
#X connect 2 0 0 0;
#X connect 2 0 1 0;
#X connect 3 0 0 1;
#X connect 3 0 1 1;
#X connect 4 0 6 0;
#X connect 5 0 7 0;
#X restore 170 269 pd midside;
#X f 12;
#X obj 152 335 *~;
#X obj 170 305 tgl 15 0 empty empty empty 17 7 0 10 -262144 -1 -1 0
1;
#X obj 256 337 *~;
#X obj 274 307 tgl 15 0 empty empty empty 17 7 0 10 -262144 -1 -1 0
1;
#X obj 170 70 symbol;
#X obj 170 125 t b a;
#X text 574 86 loop;
#X text 294 305 remove sound contained in both left and right channel
(hacky vocal remover \, vocals mixed in center very often);
#X connect 0 0 21 0;
#X connect 1 0 22 0;
#X connect 2 0 0 0;
#X connect 3 0 6 0;
#X connect 5 0 6 0;
#X connect 6 0 16 0;
#X connect 6 1 16 1;
#X connect 6 2 7 0;
#X connect 7 0 8 0;
#X connect 8 0 21 0;
#X connect 9 0 8 1;
#X connect 10 0 12 0;
#X connect 11 0 12 0;
#X connect 13 0 14 0;
#X connect 14 0 15 0;
#X connect 15 0 12 0;
#X connect 16 0 17 0;
#X connect 16 1 19 0;
#X connect 17 0 4 0;
#X connect 17 0 4 1;
#X connect 17 0 12 0;
#X connect 17 0 12 1;
#X connect 18 0 17 1;
#X connect 19 0 4 0;
#X connect 19 0 4 1;
#X connect 19 0 12 0;
#X connect 19 0 12 1;
#X connect 20 0 19 1;
#X connect 21 0 1 0;
#X connect 22 0 3 0;
#X connect 22 1 6 0;
