#N canvas 420 118 1066 868 12;
#X obj 206 294 line;
#X floatatom 207 325 5 0 0 0 - - -;
#X obj 210 35 hsl 128 15 0 127 0 0 empty empty empty -2 -8 0 10 -262144
-1 -1 25400 1;
#X floatatom 208 66 5 0 0 0 - - -;
#X obj 161 105 > 70;
#X obj 262 106 < 30;
#X obj 162 128 tgl 15 0 empty empty empty 17 7 0 10 -262144 -1 -1 1
1;
#X obj 262 129 tgl 15 0 empty empty empty 17 7 0 10 -262144 -1 -1 0
1;
#X obj 152 180 select 1;
#X obj 259 181 select 1;
#X msg 119 233 36 \, 48 200;
#X msg 273 235 48 \, 36 200;
#X connect 0 0 1 0;
#X connect 2 0 3 0;
#X connect 3 0 4 0;
#X connect 3 0 5 0;
#X connect 4 0 6 0;
#X connect 5 0 7 0;
#X connect 6 0 8 0;
#X connect 7 0 9 0;
#X connect 8 0 10 0;
#X connect 9 0 11 0;
#X connect 10 0 0 0;
#X connect 11 0 0 0;
