#N canvas 276 121 1373 650 12;
#X obj 679 30 ctlin 1;
#X floatatom 679 71 5 0 0 0 - - -;
#X obj 679 100 / 127;
#X obj 392 297 ps.recorder~;
#X obj 364 42 noise~;
#X obj 364 156 *~;
#X obj 411 128 line~;
#X msg 411 103 \$1 100;
#X obj 473 40 noise~;
#X obj 473 154 *~;
#X obj 520 126 line~;
#X msg 520 101 \$1 100;
#X obj 523 72 hsl 128 15 0 1 0 0 empty empty empty -2 -8 0 10 -262144
-1 -1 7900 1;
#X text 664 341 for best results make sure your audio does not exceed
-6 on the VU meter;
#X msg 667 224 /record \$1;
#X obj 667 194 tgl 15 0 empty empty empty 17 7 0 10 -262144 -1 -1 0
1;
#X msg 691 297 /level \$1;
#X floatatom 691 267 5 0 0 0 - - -;
#X msg 665 153 /openfile;
#X obj 262 350 dac~;
#X text 751 152 1) send this message first \, creates a numbered wav
file;
#X text 753 220 2) turn on/off recording (must send /openfile message
first \, each time you enable recording);
#X floatatom 774 71 5 0 0 0 - - -;
#X obj 774 100 / 127;
#X obj 774 30 ctlin 2;
#X connect 0 0 1 0;
#X connect 1 0 2 0;
#X connect 2 0 12 0;
#X connect 4 0 5 0;
#X connect 5 0 3 0;
#X connect 5 0 19 0;
#X connect 6 0 5 1;
#X connect 7 0 6 0;
#X connect 8 0 9 0;
#X connect 9 0 3 1;
#X connect 9 0 19 1;
#X connect 10 0 9 1;
#X connect 11 0 10 0;
#X connect 12 0 7 0;
#X connect 12 0 11 0;
#X connect 14 0 3 2;
#X connect 15 0 14 0;
#X connect 16 0 3 2;
#X connect 17 0 16 0;
#X connect 18 0 3 2;
#X connect 22 0 23 0;
#X connect 23 0 17 0;
#X connect 24 0 22 0;
