#N canvas 464 51 1088 725 10;
#X obj 89 245 bng 15 250 50 0 empty empty empty 17 7 0 10 -262144 -1
-1;
#X obj 89 181 tgl 30 0 empty empty empty 17 7 0 10 -262144 -1 -1 0
1;
#X obj 89 219 metro 50;
#X msg 145 219 info;
#N canvas 323 23 1346 647 flags 0;
#X obj 109 135 tgl 15 0 empty to_general general 17 7 0 10 -262144
-1 -1 0 1;
#X obj 109 177 tgl 15 0 empty to_palm_position palm_position 17 7 0
10 -262144 -1 -1 0 1;
#X obj 110 312 tgl 15 0 empty to_fingers_position position 17 7 0 10
-262144 -1 -1 0 1;
#X obj 219 164 tgl 15 0 empty to_tools_position position 17 7 0 10
-262144 -1 -1 0 1;
#X obj 110 344 tgl 15 0 empty to_fingers_size size 17 7 0 10 -262144
-1 -1 0 1;
#X obj 219 196 tgl 15 0 empty to_tools_size size 17 7 0 10 -262144
-1 -1 0 1;
#X obj 219 180 tgl 15 0 empty to_tools_velocity velocity 17 7 0 10
-262144 -1 -1 0 1;
#X obj 110 328 tgl 15 0 empty to_fingers_velocity velocity 17 7 0 10
-262144 -1 -1 0 1;
#X obj 109 162 tgl 15 0 empty to_direction direction 17 7 0 10 -262144
-1 -1 1 1;
#X obj 109 220 tgl 15 0 empty to_sphere_radius sphere_radius 17 7 0
10 -262144 -1 -1 0 1;
#X obj 109 235 tgl 15 0 empty to_sphere_center sphere_center 17 7 0
10 -262144 -1 -1 0 1;
#X obj 109 250 tgl 15 0 empty to_finger_count finger_count 17 7 0 10
-262144 -1 -1 0 1;
#X obj 109 265 tgl 15 0 empty to_tool_count tool_count 17 7 0 10 -262144
-1 -1 0 1;
#X obj 109 191 tgl 15 0 empty to_palm_velocity palm_velocity 17 7 0
10 -262144 -1 -1 0 1;
#X obj 109 206 tgl 15 0 empty to_palm_normal palm_normal 17 7 0 10
-262144 -1 -1 0 1;
#X obj -49 463 outlet;
#X msg -49 133 general \$1;
#X msg -50 177 hands_direction \$1;
#X msg -48 236 hands_sphere_radius \$1;
#X msg -48 251 hands_sphere_center \$1;
#X msg -48 266 hands_finger_count \$1;
#X msg -48 280 hands_tool_count \$1;
#X msg -50 192 hands_palm_position \$1;
#X msg -49 206 hands_palm_velocity \$1;
#X msg -48 220 hands_palm_normal \$1;
#X msg -49 359 fingers_size \$1;
#X obj 359 427 list prepend gestures;
#X obj 359 450 list trim;
#X msg 356 210 tools_size \$1;
#X msg -49 327 fingers_position \$1;
#X msg -49 345 fingers_velocity \$1;
#X msg 356 179 tools_position \$1;
#X msg 356 194 tools_velocity \$1;
#X msg 359 312 TYPE_CIRCLE \$1;
#X msg 359 343 TYPE_KEY_TAP \$1;
#X msg 359 358 TYPE_SCREEN_TAP \$1;
#X msg 359 328 TYPE_SWIPE \$1;
#X obj 220 296 tgl 15 0 empty to_gestures_circle circle 17 7 0 10 -262144
-1 -1 0 1;
#X obj 220 326 tgl 15 0 empty to_gestures_key_tap key_tap 17 7 0 10
-262144 -1 -1 0 1;
#X obj 220 341 tgl 15 0 empty to_gestures_screen_tap screen_tap 17
7 0 10 -262144 -1 -1 0 1;
#X obj 220 311 tgl 15 0 empty to_gestures_swipe swipe 17 7 0 10 -262144
-1 -1 0 1;
#X obj 110 299 tgl 15 0 empty to_fingers_direction direction 17 7 0
10 -262144 -1 -1 1 1;
#X msg -49 310 fingers_direction \$1;
#X text 108 147 hands;
#X text 108 279 fingers;
#X text 218 277 gestures;
#X text 218 131 tools;
#X obj 219 148 tgl 15 0 empty to_tools_direction direction 17 7 0 10
-262144 -1 -1 0 1;
#X msg 356 163 tools_direction \$1;
#X obj 218 110 tgl 15 0 empty empty all_on/off 17 7 0 10 -258113 -1
-1 0 1;
#X msg 544 128 \; to_general \$1 \; to_direction \$1 \; to_palm_position
\$1 \; to_palm_velocity \$1 \; to_palm_normal \$1 \; to_sphere_radius
\$1 \; to_sphere_center \$1 \; to_finger_count \$1 \; to_tool_count
\$1 \; to_fingers_direction \$1 \; to_fingers_position \$1 \; to_fingers_velocity
\$1 \; to_fingers_size \$1 \; to_tools_direction \$1 \; to_tools_position
\$1 \; to_tools_velocity \$1 \; to_tools_size \$1 \; to_gestures_circle
\$1 \; to_gestures_swipe \$1 \; to_gestures_key_tap \$1 \; to_gestures_screen_tap
\$1 \;;
#X obj 305 6 inlet;
#X msg 368 72 0;
#X msg 332 71 1;
#X msg 301 70 1;
#X obj 307 41 t b b b;
#X obj 280 37 bng 15 250 50 0 empty empty empty 17 7 0 10 -262144 -1
-1;
#X connect 0 0 16 0;
#X connect 1 0 22 0;
#X connect 2 0 29 0;
#X connect 3 0 31 0;
#X connect 4 0 25 0;
#X connect 5 0 28 0;
#X connect 6 0 32 0;
#X connect 7 0 30 0;
#X connect 8 0 17 0;
#X connect 9 0 18 0;
#X connect 10 0 19 0;
#X connect 11 0 20 0;
#X connect 12 0 21 0;
#X connect 13 0 23 0;
#X connect 14 0 24 0;
#X connect 16 0 15 0;
#X connect 17 0 15 0;
#X connect 18 0 15 0;
#X connect 19 0 15 0;
#X connect 20 0 15 0;
#X connect 21 0 15 0;
#X connect 22 0 15 0;
#X connect 23 0 15 0;
#X connect 24 0 15 0;
#X connect 25 0 15 0;
#X connect 26 0 27 0;
#X connect 27 0 15 0;
#X connect 28 0 15 0;
#X connect 29 0 15 0;
#X connect 30 0 15 0;
#X connect 31 0 15 0;
#X connect 32 0 15 0;
#X connect 33 0 26 0;
#X connect 34 0 26 0;
#X connect 35 0 26 0;
#X connect 36 0 26 0;
#X connect 37 0 33 0;
#X connect 38 0 34 0;
#X connect 39 0 35 0;
#X connect 40 0 36 0;
#X connect 41 0 42 0;
#X connect 42 0 15 0;
#X connect 47 0 48 0;
#X connect 48 0 15 0;
#X connect 49 0 50 0;
#X connect 51 0 55 0;
#X connect 52 0 49 0;
#X connect 53 0 8 0;
#X connect 54 0 41 0;
#X connect 55 0 54 0;
#X connect 55 1 53 0;
#X connect 55 2 52 0;
#X connect 56 0 55 0;
#X coords 0 -1 1 1 250 270 1 100 100;
#X restore 455 39 pd flags;
#X obj 187 291 leapmotion;
#X obj 455 18 loadbang;
#X obj 215 338 route hand;
#X obj 215 366 route 0 1;
#X obj 215 402 route direction fingers;
#X obj 215 429 unpack f f f;
#X floatatom 215 459 5 0 0 0 - - -;
#X floatatom 249 459 5 0 0 0 - - -;
#X floatatom 284 459 5 0 0 0 - - -;
#X obj 327 431 route 0 1 2 3 4, f 67;
#X obj 327 487 unpack f f f;
#X floatatom 327 517 5 0 0 0 - - -;
#X floatatom 361 517 5 0 0 0 - - -;
#X floatatom 396 517 5 0 0 0 - - -;
#X obj 327 460 route direction;
#X obj 433 487 unpack f f f;
#X floatatom 433 517 5 0 0 0 - - -;
#X floatatom 467 517 5 0 0 0 - - -;
#X floatatom 502 517 5 0 0 0 - - -;
#X obj 433 460 route direction;
#X obj 537 487 unpack f f f;
#X floatatom 537 517 5 0 0 0 - - -;
#X floatatom 571 517 5 0 0 0 - - -;
#X floatatom 606 517 5 0 0 0 - - -;
#X obj 537 460 route direction;
#X obj 643 487 unpack f f f;
#X floatatom 643 517 5 0 0 0 - - -;
#X floatatom 677 517 5 0 0 0 - - -;
#X floatatom 712 517 5 0 0 0 - - -;
#X obj 643 460 route direction;
#X obj 747 487 unpack f f f;
#X floatatom 747 517 5 0 0 0 - - -;
#X floatatom 781 517 5 0 0 0 - - -;
#X floatatom 816 517 5 0 0 0 - - -;
#X obj 747 460 route direction;
#X obj 76 554 route direction fingers;
#X obj 76 581 unpack f f f;
#X floatatom 76 611 5 0 0 0 - - -;
#X floatatom 110 611 5 0 0 0 - - -;
#X floatatom 145 611 5 0 0 0 - - -;
#X obj 188 583 route 0 1 2 3 4, f 67;
#X obj 188 639 unpack f f f;
#X floatatom 188 669 5 0 0 0 - - -;
#X floatatom 222 669 5 0 0 0 - - -;
#X floatatom 257 669 5 0 0 0 - - -;
#X obj 188 612 route direction;
#X obj 294 639 unpack f f f;
#X floatatom 294 669 5 0 0 0 - - -;
#X floatatom 328 669 5 0 0 0 - - -;
#X floatatom 363 669 5 0 0 0 - - -;
#X obj 294 612 route direction;
#X obj 398 639 unpack f f f;
#X floatatom 398 669 5 0 0 0 - - -;
#X floatatom 432 669 5 0 0 0 - - -;
#X floatatom 467 669 5 0 0 0 - - -;
#X obj 398 612 route direction;
#X obj 504 639 unpack f f f;
#X floatatom 504 669 5 0 0 0 - - -;
#X floatatom 538 669 5 0 0 0 - - -;
#X floatatom 573 669 5 0 0 0 - - -;
#X obj 504 612 route direction;
#X obj 608 639 unpack f f f;
#X floatatom 608 669 5 0 0 0 - - -;
#X floatatom 642 669 5 0 0 0 - - -;
#X floatatom 677 669 5 0 0 0 - - -;
#X obj 608 612 route direction;
#X connect 0 0 5 0;
#X connect 1 0 2 0;
#X connect 2 0 0 0;
#X connect 3 0 5 0;
#X connect 4 0 5 0;
#X connect 5 1 7 0;
#X connect 6 0 4 0;
#X connect 7 0 8 0;
#X connect 8 0 9 0;
#X connect 8 1 40 0;
#X connect 9 0 10 0;
#X connect 9 1 14 0;
#X connect 10 0 11 0;
#X connect 10 1 12 0;
#X connect 10 2 13 0;
#X connect 14 0 19 0;
#X connect 14 1 24 0;
#X connect 14 2 29 0;
#X connect 14 3 34 0;
#X connect 14 4 39 0;
#X connect 15 0 16 0;
#X connect 15 1 17 0;
#X connect 15 2 18 0;
#X connect 19 0 15 0;
#X connect 20 0 21 0;
#X connect 20 1 22 0;
#X connect 20 2 23 0;
#X connect 24 0 20 0;
#X connect 25 0 26 0;
#X connect 25 1 27 0;
#X connect 25 2 28 0;
#X connect 29 0 25 0;
#X connect 30 0 31 0;
#X connect 30 1 32 0;
#X connect 30 2 33 0;
#X connect 34 0 30 0;
#X connect 35 0 36 0;
#X connect 35 1 37 0;
#X connect 35 2 38 0;
#X connect 39 0 35 0;
#X connect 40 0 41 0;
#X connect 40 1 45 0;
#X connect 41 0 42 0;
#X connect 41 1 43 0;
#X connect 41 2 44 0;
#X connect 45 0 50 0;
#X connect 45 1 55 0;
#X connect 45 2 60 0;
#X connect 45 3 65 0;
#X connect 45 4 70 0;
#X connect 46 0 47 0;
#X connect 46 1 48 0;
#X connect 46 2 49 0;
#X connect 50 0 46 0;
#X connect 51 0 52 0;
#X connect 51 1 53 0;
#X connect 51 2 54 0;
#X connect 55 0 51 0;
#X connect 56 0 57 0;
#X connect 56 1 58 0;
#X connect 56 2 59 0;
#X connect 60 0 56 0;
#X connect 61 0 62 0;
#X connect 61 1 63 0;
#X connect 61 2 64 0;
#X connect 65 0 61 0;
#X connect 66 0 67 0;
#X connect 66 1 68 0;
#X connect 66 2 69 0;
#X connect 70 0 66 0;
