#N canvas 53 23 1198 672 10;
#X msg 62 42 close;
#X msg 53 15 devices;
#X floatatom 113 23 5 0 0 0 - - -;
#X msg 113 42 open \$1;
#X obj 53 129 s;
#X obj 53 107 serial_print any;
#X floatatom 799 524 5 0 0 0 - - -;
#X symbolatom 146 128 20 0 0 0 - - -;
#X obj 799 503 r count:;
#X obj 812 50 r pressed:;
#X obj 812 72 bng 15 250 50 0 empty empty empty 17 7 0 10 -262144 -1
-1;
#X floatatom 854 525 5 0 0 0 - - -;
#X obj 854 503 r difference:;
#X obj 854 544 select 1 -1;
#X obj 854 576 bng 15 250 50 0 empty empty empty 17 7 0 10 -262144
-1 -1;
#X obj 885 576 bng 15 250 50 0 empty empty empty 17 7 0 10 -262144
-1 -1;
#X obj 956 257 s rgb;
#X obj 11 14 r rgb;
#X obj 799 546 % 20;
#X floatatom 799 566 5 0 0 0 - - -;
#X floatatom 286 78 5 0 0 0 - - -;
#X floatatom 430 78 5 0 0 0 - - -;
#X obj 1123 503 r button:;
#X floatatom 1123 525 5 0 0 0 - - -;
#X floatatom 809 310 5 0 0 0 - - -;
#X obj 809 289 r proximity:;
#X floatatom 939 523 5 0 0 0 - - -;
#X obj 939 503 r ambientlight:;
#X floatatom 1037 523 5 0 0 0 - - -;
#X obj 1037 503 r whitelight:;
#X obj 286 56 r jx:;
#X obj 430 56 r jy:;
#X floatatom 607 43 5 0 0 0 - - -;
#X floatatom 286 176 5 0 0 0 - - -;
#X floatatom 430 175 5 0 0 0 - - -;
#X obj 607 21 r x:;
#X obj 286 155 r y:;
#X obj 430 155 r z:;
#X obj 447 520 dac~;
#X obj 763 69 adc~;
#X obj 809 253 tabwrite~ vox1;
#X msg 1089 229 \; vox1 normalize;
#X obj 607 229 tabread4~ vox1;
#X obj 447 469 *~ 0.6;
#X obj 200 18 table vox1 88200;
#X obj 996 174 delay 2 1 sec;
#X obj 607 182 phasor~;
#X obj 607 205 *~ 88200;
#X obj 607 137 f 0.5;
#X obj 607 160 * 1, f 8;
#X floatatom 607 89 5 0 0 0 - - -;
#X obj 607 113 t b f, f 8;
#X obj 607 66 ps.scale 0 360 -2 2;
#X msg 956 228 255 0 0;
#X msg 1023 227 0 255 0;
#X obj 447 380 *~;
#X obj 502 387 line~;
#X msg 502 361 1 10;
#X msg 540 361 0 10;
#X obj 812 95 t b b b b;
#X obj 516 471 *~ 0.6;
#X floatatom 286 215 5 0 0 0 - - -;
#X floatatom 430 214 5 0 0 0 - - -;
#X obj 447 437 ps.echo~ ek1;
#X obj 809 413 line~;
#X floatatom 809 373 5 0 0 0 - - -;
#X obj 809 330 ps.scale 1 700 0 1;
#X obj 809 354 clip 0 1;
#X msg 809 393 \$1 100;
#X obj 447 406 *~;
#X obj 286 98 / 1023;
#X obj 430 98 / 1023;
#X msg 30 206 \; ek1 /lfeedback 0.5 \; ek1 /rfeedback 0.5 \; ek1 /wet
0.8 \; ek1 /ltime 200 \; ek1 /rtime 200 \;;
#X msg 286 118 \; ek1 /lfeedback \$1;
#X msg 430 118 \; ek1 /rfeedback \$1;
#X obj 30 181 loadbang;
#X msg 286 236 \; ek1 /ltime \$1;
#X msg 430 235 \; ek1 /rtime \$1;
#X obj 996 198 t b b b;
#X obj 286 196 ps.scale -90 90 10 700;
#X obj 430 195 ps.scale -180 180 10 700;
#X text 334 8 a live sample scrubber with delay effect;
#X text 36 324 Twist button starts record of 2 seconds (red while recording
\, green while playing);
#X text 40 405 proximity = volume of playback (pre-delay);
#X text 45 364 X = sample loop speed \; Y = left delay time \; Z =
right delay time;
#X text 40 440 joystick X = left feedback \; joystick Y = right feedback
;
#X text 796 483 unused at the moment:;
#X obj 447 357 *~;
#N canvas 0 22 450 278 (subpatch) 0;
#X array window 16 float 1;
#A 0 0 0 0.75 0.8 0.85 0.9 0.95 1 1 0.95 0.9 0.85 0.8 0.75 0 0;
#X coords 0 1 15 0 200 140 1 0 0;
#X restore 51 511 graph;
#X obj 700 229 tabread4~ window;
#X obj 700 205 *~ 16;
#X text 274 581 using an amplitude window to reduce click sounds that
might be at end/start points of loop;
#X obj 53 85 comport 4 9600;
#X connect 0 0 92 0;
#X connect 1 0 92 0;
#X connect 2 0 3 0;
#X connect 3 0 92 0;
#X connect 5 0 4 0;
#X connect 5 1 4 1;
#X connect 5 1 7 0;
#X connect 6 0 18 0;
#X connect 8 0 6 0;
#X connect 9 0 10 0;
#X connect 10 0 59 0;
#X connect 11 0 13 0;
#X connect 12 0 11 0;
#X connect 13 0 14 0;
#X connect 13 1 15 0;
#X connect 17 0 92 0;
#X connect 18 0 19 0;
#X connect 20 0 70 0;
#X connect 21 0 71 0;
#X connect 22 0 23 0;
#X connect 24 0 66 0;
#X connect 25 0 24 0;
#X connect 27 0 26 0;
#X connect 29 0 28 0;
#X connect 30 0 20 0;
#X connect 31 0 21 0;
#X connect 32 0 52 0;
#X connect 33 0 79 0;
#X connect 34 0 80 0;
#X connect 35 0 32 0;
#X connect 36 0 33 0;
#X connect 37 0 34 0;
#X connect 39 0 40 0;
#X connect 42 0 87 0;
#X connect 43 0 38 0;
#X connect 45 0 78 0;
#X connect 46 0 47 0;
#X connect 46 0 90 0;
#X connect 47 0 42 0;
#X connect 48 0 49 0;
#X connect 49 0 46 0;
#X connect 50 0 51 0;
#X connect 51 0 48 0;
#X connect 51 1 49 1;
#X connect 52 0 50 0;
#X connect 53 0 16 0;
#X connect 54 0 16 0;
#X connect 55 0 69 0;
#X connect 56 0 55 1;
#X connect 57 0 56 0;
#X connect 58 0 56 0;
#X connect 59 0 40 0;
#X connect 59 1 45 0;
#X connect 59 2 53 0;
#X connect 59 3 58 0;
#X connect 60 0 38 1;
#X connect 61 0 76 0;
#X connect 62 0 77 0;
#X connect 63 0 43 0;
#X connect 63 1 60 0;
#X connect 64 0 69 1;
#X connect 65 0 68 0;
#X connect 66 0 67 0;
#X connect 67 0 65 0;
#X connect 68 0 64 0;
#X connect 69 0 63 0;
#X connect 69 0 63 1;
#X connect 70 0 73 0;
#X connect 71 0 74 0;
#X connect 75 0 72 0;
#X connect 78 0 57 0;
#X connect 78 1 54 0;
#X connect 78 2 41 0;
#X connect 79 0 61 0;
#X connect 80 0 62 0;
#X connect 87 0 55 0;
#X connect 89 0 87 1;
#X connect 90 0 89 0;
#X connect 92 0 5 0;
