#N canvas 327 68 1039 782 10;
#X obj 268 194 tgl 15 0 empty empty empty 17 7 0 10 -262144 -1 -1 0
1;
#X obj 268 170 change;
#X obj 313 194 tgl 15 0 empty empty empty 17 7 0 10 -262144 -1 -1 0
1;
#X obj 313 170 change;
#X obj 357 194 tgl 15 0 empty empty empty 17 7 0 10 -262144 -1 -1 0
1;
#X obj 357 170 change;
#N canvas 416 176 755 601 match 0;
#X obj 204 190 &&;
#X obj 141 61 inlet;
#X obj 247 58 inlet;
#X obj 250 110 t b f;
#X obj 189 139 f;
#X obj 202 261 outlet;
#X connect 0 0 5 0;
#X connect 1 0 4 0;
#X connect 2 0 3 0;
#X connect 3 0 4 0;
#X connect 3 1 0 1;
#X connect 4 0 0 0;
#X restore 481 277 pd match;
#X obj 481 300 tgl 15 0 empty empty empty 17 7 0 10 -262144 -1 -1 0
1;
#X obj 88 356 tgl 15 0 empty empty empty 17 7 0 10 -262144 -1 -1 0
1;
#X obj 88 332 change;
#X obj 127 428 tgl 15 0 empty empty empty 17 7 0 10 -262144 -1 -1 0
1;
#X obj 127 404 change;
#X obj 167 496 tgl 15 0 empty empty empty 17 7 0 10 -262144 -1 -1 0
1;
#X obj 167 472 change;
#X obj 208 565 tgl 15 0 empty empty empty 17 7 0 10 -262144 -1 -1 0
1;
#X obj 208 541 change;
#X obj 88 26 inlet;
#X obj 127 26 inlet;
#X obj 167 26 inlet;
#X obj 208 26 inlet;
#X obj 268 26 inlet;
#X obj 313 26 inlet;
#X obj 357 26 inlet;
#N canvas 416 176 755 601 match 0;
#X obj 204 190 &&;
#X obj 141 61 inlet;
#X obj 247 58 inlet;
#X obj 250 110 t b f;
#X obj 189 139 f;
#X obj 202 261 outlet;
#X connect 0 0 5 0;
#X connect 1 0 4 0;
#X connect 2 0 3 0;
#X connect 3 0 4 0;
#X connect 3 1 0 1;
#X connect 4 0 0 0;
#X restore 545 277 pd match;
#X obj 545 300 tgl 15 0 empty empty empty 17 7 0 10 -262144 -1 -1 0
1;
#N canvas 416 176 755 601 match 0;
#X obj 204 190 &&;
#X obj 141 61 inlet;
#X obj 247 58 inlet;
#X obj 250 110 t b f;
#X obj 189 139 f;
#X obj 202 261 outlet;
#X connect 0 0 5 0;
#X connect 1 0 4 0;
#X connect 2 0 3 0;
#X connect 3 0 4 0;
#X connect 3 1 0 1;
#X connect 4 0 0 0;
#X restore 605 277 pd match;
#X obj 605 300 tgl 15 0 empty empty empty 17 7 0 10 -262144 -1 -1 0
1;
#X obj 481 228 t f f f f;
#N canvas 416 176 755 601 match 0;
#X obj 204 190 &&;
#X obj 141 61 inlet;
#X obj 247 58 inlet;
#X obj 250 110 t b f;
#X obj 189 139 f;
#X obj 202 261 outlet;
#X connect 0 0 5 0;
#X connect 1 0 4 0;
#X connect 2 0 3 0;
#X connect 3 0 4 0;
#X connect 3 1 0 1;
#X connect 4 0 0 0;
#X restore 481 373 pd match;
#X obj 481 396 tgl 15 0 empty empty empty 17 7 0 10 -262144 -1 -1 0
1;
#N canvas 416 176 755 601 match 0;
#X obj 204 190 &&;
#X obj 141 61 inlet;
#X obj 247 58 inlet;
#X obj 250 110 t b f;
#X obj 189 139 f;
#X obj 202 261 outlet;
#X connect 0 0 5 0;
#X connect 1 0 4 0;
#X connect 2 0 3 0;
#X connect 3 0 4 0;
#X connect 3 1 0 1;
#X connect 4 0 0 0;
#X restore 545 373 pd match;
#X obj 545 396 tgl 15 0 empty empty empty 17 7 0 10 -262144 -1 -1 0
1;
#N canvas 416 176 755 601 match 0;
#X obj 204 190 &&;
#X obj 141 61 inlet;
#X obj 247 58 inlet;
#X obj 250 110 t b f;
#X obj 189 139 f;
#X obj 202 261 outlet;
#X connect 0 0 5 0;
#X connect 1 0 4 0;
#X connect 2 0 3 0;
#X connect 3 0 4 0;
#X connect 3 1 0 1;
#X connect 4 0 0 0;
#X restore 605 373 pd match;
#X obj 605 396 tgl 15 0 empty empty empty 17 7 0 10 -262144 -1 -1 0
1;
#X obj 481 324 t f f f f;
#N canvas 416 176 755 601 match 0;
#X obj 204 190 &&;
#X obj 141 61 inlet;
#X obj 247 58 inlet;
#X obj 250 110 t b f;
#X obj 189 139 f;
#X obj 202 261 outlet;
#X connect 0 0 5 0;
#X connect 1 0 4 0;
#X connect 2 0 3 0;
#X connect 3 0 4 0;
#X connect 3 1 0 1;
#X connect 4 0 0 0;
#X restore 481 478 pd match;
#X obj 481 501 tgl 15 0 empty empty empty 17 7 0 10 -262144 -1 -1 0
1;
#N canvas 416 176 755 601 match 0;
#X obj 204 190 &&;
#X obj 141 61 inlet;
#X obj 247 58 inlet;
#X obj 250 110 t b f;
#X obj 189 139 f;
#X obj 202 261 outlet;
#X connect 0 0 5 0;
#X connect 1 0 4 0;
#X connect 2 0 3 0;
#X connect 3 0 4 0;
#X connect 3 1 0 1;
#X connect 4 0 0 0;
#X restore 545 478 pd match;
#X obj 545 501 tgl 15 0 empty empty empty 17 7 0 10 -262144 -1 -1 0
1;
#N canvas 416 176 755 601 match 0;
#X obj 204 190 &&;
#X obj 141 61 inlet;
#X obj 247 58 inlet;
#X obj 250 110 t b f;
#X obj 189 139 f;
#X obj 202 261 outlet;
#X connect 0 0 5 0;
#X connect 1 0 4 0;
#X connect 2 0 3 0;
#X connect 3 0 4 0;
#X connect 3 1 0 1;
#X connect 4 0 0 0;
#X restore 605 478 pd match;
#X obj 605 501 tgl 15 0 empty empty empty 17 7 0 10 -262144 -1 -1 0
1;
#X obj 481 429 t f f f f;
#N canvas 416 176 755 601 match 0;
#X obj 204 190 &&;
#X obj 141 61 inlet;
#X obj 247 58 inlet;
#X obj 250 110 t b f;
#X obj 189 139 f;
#X obj 202 261 outlet;
#X connect 0 0 5 0;
#X connect 1 0 4 0;
#X connect 2 0 3 0;
#X connect 3 0 4 0;
#X connect 3 1 0 1;
#X connect 4 0 0 0;
#X restore 483 591 pd match;
#X obj 483 614 tgl 15 0 empty empty empty 17 7 0 10 -262144 -1 -1 0
1;
#N canvas 416 176 755 601 match 0;
#X obj 204 190 &&;
#X obj 141 61 inlet;
#X obj 247 58 inlet;
#X obj 250 110 t b f;
#X obj 189 139 f;
#X obj 202 261 outlet;
#X connect 0 0 5 0;
#X connect 1 0 4 0;
#X connect 2 0 3 0;
#X connect 3 0 4 0;
#X connect 3 1 0 1;
#X connect 4 0 0 0;
#X restore 547 591 pd match;
#X obj 547 614 tgl 15 0 empty empty empty 17 7 0 10 -262144 -1 -1 0
1;
#N canvas 416 176 755 601 match 0;
#X obj 204 190 &&;
#X obj 141 61 inlet;
#X obj 247 58 inlet;
#X obj 250 110 t b f;
#X obj 189 139 f;
#X obj 202 261 outlet;
#X connect 0 0 5 0;
#X connect 1 0 4 0;
#X connect 2 0 3 0;
#X connect 3 0 4 0;
#X connect 3 1 0 1;
#X connect 4 0 0 0;
#X restore 607 591 pd match;
#X obj 607 614 tgl 15 0 empty empty empty 17 7 0 10 -262144 -1 -1 0
1;
#X obj 483 542 t f f f f;
#X obj 526 102 t f f f f;
#X obj 592 102 t f f f f;
#X obj 655 102 t f f f f;
#X obj 68 708 outlet;
#X obj 114 708 outlet;
#X obj 160 708 outlet;
#X obj 265 710 outlet;
#X obj 311 710 outlet;
#X obj 357 710 outlet;
#X obj 475 708 outlet;
#X obj 521 708 outlet;
#X obj 567 708 outlet;
#X obj 672 710 outlet;
#X obj 718 710 outlet;
#X obj 764 710 outlet;
#X connect 0 0 49 0;
#X connect 1 0 0 0;
#X connect 2 0 50 0;
#X connect 3 0 2 0;
#X connect 4 0 51 0;
#X connect 5 0 4 0;
#X connect 6 0 7 0;
#X connect 7 0 52 0;
#X connect 8 0 27 0;
#X connect 9 0 8 0;
#X connect 10 0 34 0;
#X connect 11 0 10 0;
#X connect 12 0 41 0;
#X connect 13 0 12 0;
#X connect 14 0 48 0;
#X connect 15 0 14 0;
#X connect 16 0 9 0;
#X connect 17 0 11 0;
#X connect 18 0 13 0;
#X connect 19 0 15 0;
#X connect 20 0 1 0;
#X connect 21 0 3 0;
#X connect 22 0 5 0;
#X connect 23 0 24 0;
#X connect 24 0 53 0;
#X connect 25 0 26 0;
#X connect 26 0 54 0;
#X connect 27 0 6 0;
#X connect 27 1 23 0;
#X connect 27 2 25 0;
#X connect 28 0 29 0;
#X connect 29 0 55 0;
#X connect 30 0 31 0;
#X connect 31 0 56 0;
#X connect 32 0 33 0;
#X connect 33 0 57 0;
#X connect 34 0 28 0;
#X connect 34 1 30 0;
#X connect 34 2 32 0;
#X connect 35 0 36 0;
#X connect 36 0 58 0;
#X connect 37 0 38 0;
#X connect 38 0 59 0;
#X connect 39 0 40 0;
#X connect 40 0 60 0;
#X connect 41 0 35 0;
#X connect 41 1 37 0;
#X connect 41 2 39 0;
#X connect 42 0 43 0;
#X connect 43 0 61 0;
#X connect 44 0 45 0;
#X connect 45 0 62 0;
#X connect 46 0 47 0;
#X connect 47 0 63 0;
#X connect 48 0 42 0;
#X connect 48 1 44 0;
#X connect 48 2 46 0;
#X connect 49 0 6 1;
#X connect 49 1 28 1;
#X connect 49 2 35 1;
#X connect 49 3 42 1;
#X connect 50 0 23 1;
#X connect 50 1 30 1;
#X connect 50 2 37 1;
#X connect 50 3 44 1;
#X connect 51 0 25 1;
#X connect 51 1 32 1;
#X connect 51 2 39 1;
#X connect 51 3 46 1;
