#N canvas 265 102 1293 775 10;
#X obj 155 133 matrix3x4, f 57;
#X obj 491 437 tgl 34 0 empty empty empty 17 7 0 10 -262144 -1 -1 0
1;
#X obj 491 420 r m11;
#X obj 525 437 tgl 34 0 empty empty empty 17 7 0 10 -262144 -1 -1 0
1;
#X obj 525 420 r m12;
#X obj 559 437 tgl 34 0 empty empty empty 17 7 0 10 -262144 -1 -1 0
1;
#X obj 559 420 r m13;
#X obj 491 488 tgl 34 0 empty empty empty 17 7 0 10 -262144 -1 -1 0
1;
#X obj 525 488 tgl 34 0 empty empty empty 17 7 0 10 -262144 -1 -1 0
1;
#X obj 559 488 tgl 34 0 empty empty empty 17 7 0 10 -262144 -1 -1 0
1;
#X obj 491 471 r m21;
#X obj 525 471 r m22;
#X obj 559 471 r m23;
#X obj 491 539 tgl 34 0 empty empty empty 17 7 0 10 -262144 -1 -1 0
1;
#X obj 525 539 tgl 34 0 empty empty empty 17 7 0 10 -262144 -1 -1 0
1;
#X obj 559 539 tgl 34 0 empty empty empty 17 7 0 10 -262144 -1 -1 0
1;
#X obj 491 522 r m31;
#X obj 525 522 r m32;
#X obj 559 522 r m33;
#X obj 491 590 tgl 34 0 empty empty empty 17 7 0 10 -262144 -1 -1 0
1;
#X obj 525 590 tgl 34 0 empty empty empty 17 7 0 10 -262144 -1 -1 0
1;
#X obj 559 590 tgl 34 0 empty empty empty 17 7 0 10 -262144 -1 -1 0
1;
#X obj 491 573 r m41;
#X obj 525 573 r m42;
#X obj 559 573 r m43;
#X obj 156 199 s m11;
#X obj 178 222 s m12;
#X obj 200 244 s m13;
#X obj 244 205 s m21;
#X obj 266 228 s m22;
#X obj 289 250 s m23;
#X obj 333 208 s m31;
#X obj 355 231 s m32;
#X obj 378 253 s m33;
#X obj 422 209 s m41;
#X obj 444 232 s m42;
#X obj 466 254 s m43;
#X obj 447 437 tgl 34 0 empty empty empty 17 7 0 10 -262144 -1 -1 0
1;
#X obj 447 488 tgl 34 0 empty empty empty 17 7 0 10 -262144 -1 -1 0
1;
#X obj 447 539 tgl 34 0 empty empty empty 17 7 0 10 -262144 -1 -1 0
1;
#X obj 447 590 tgl 34 0 empty empty empty 17 7 0 10 -262144 -1 -1 0
1;
#X obj 490 367 tgl 34 0 empty empty empty 17 7 0 10 -262144 -1 -1 0
1;
#X obj 524 367 tgl 34 0 empty empty empty 17 7 0 10 -262144 -1 -1 0
1;
#X obj 558 367 tgl 34 0 empty empty empty 17 7 0 10 -262144 -1 -1 0
1;
#X obj 732 54 ctlin 51;
#X floatatom 732 96 5 0 0 0 - - -, f 5;
#X obj 731 136 select 127;
#X obj 731 164 bng 15 250 50 0 empty empty empty 17 7 0 10 -262144
-1 -1;
#X floatatom 801 95 5 0 0 0 - - -, f 5;
#X obj 800 135 select 127;
#X obj 800 163 bng 15 250 50 0 empty empty empty 17 7 0 10 -262144
-1 -1;
#X floatatom 874 94 5 0 0 0 - - -, f 5;
#X obj 873 134 select 127;
#X obj 873 162 bng 15 250 50 0 empty empty empty 17 7 0 10 -262144
-1 -1;
#X floatatom 728 242 5 0 0 0 - - -, f 5;
#X obj 727 282 select 127;
#X obj 727 310 bng 15 250 50 0 empty empty empty 17 7 0 10 -262144
-1 -1;
#X floatatom 797 241 5 0 0 0 - - -, f 5;
#X obj 796 281 select 127;
#X obj 796 309 bng 15 250 50 0 empty empty empty 17 7 0 10 -262144
-1 -1;
#X floatatom 870 240 5 0 0 0 - - -, f 5;
#X obj 869 280 select 127;
#X obj 869 308 bng 15 250 50 0 empty empty empty 17 7 0 10 -262144
-1 -1;
#X floatatom 722 385 5 0 0 0 - - -, f 5;
#X obj 721 425 select 127;
#X obj 721 453 bng 15 250 50 0 empty empty empty 17 7 0 10 -262144
-1 -1;
#X floatatom 791 384 5 0 0 0 - - -, f 5;
#X obj 790 424 select 127;
#X obj 790 452 bng 15 250 50 0 empty empty empty 17 7 0 10 -262144
-1 -1;
#X floatatom 864 383 5 0 0 0 - - -, f 5;
#X obj 863 423 select 127;
#X obj 863 451 bng 15 250 50 0 empty empty empty 17 7 0 10 -262144
-1 -1;
#X floatatom 716 547 5 0 0 0 - - -, f 5;
#X obj 715 587 select 127;
#X obj 715 615 bng 15 250 50 0 empty empty empty 17 7 0 10 -262144
-1 -1;
#X floatatom 785 546 5 0 0 0 - - -, f 5;
#X obj 784 586 select 127;
#X obj 784 614 bng 15 250 50 0 empty empty empty 17 7 0 10 -262144
-1 -1;
#X floatatom 858 545 5 0 0 0 - - -, f 5;
#X obj 857 585 select 127;
#X obj 857 613 bng 15 250 50 0 empty empty empty 17 7 0 10 -262144
-1 -1;
#X obj 801 53 ctlin 52;
#X obj 874 52 ctlin 53;
#X obj 728 200 ctlin 54;
#X obj 797 199 ctlin 55;
#X obj 870 198 ctlin 56;
#X obj 722 343 ctlin 57;
#X obj 791 342 ctlin 58;
#X obj 864 341 ctlin 59;
#X obj 716 505 ctlin 60;
#X obj 785 504 ctlin 61;
#X obj 858 503 ctlin 62;
#X connect 0 0 25 0;
#X connect 0 1 26 0;
#X connect 0 2 27 0;
#X connect 0 3 28 0;
#X connect 0 4 29 0;
#X connect 0 5 30 0;
#X connect 0 6 31 0;
#X connect 0 7 32 0;
#X connect 0 8 33 0;
#X connect 0 9 34 0;
#X connect 0 10 35 0;
#X connect 0 11 36 0;
#X connect 2 0 1 0;
#X connect 4 0 3 0;
#X connect 6 0 5 0;
#X connect 10 0 7 0;
#X connect 11 0 8 0;
#X connect 12 0 9 0;
#X connect 16 0 13 0;
#X connect 17 0 14 0;
#X connect 18 0 15 0;
#X connect 22 0 19 0;
#X connect 23 0 20 0;
#X connect 24 0 21 0;
#X connect 37 0 0 0;
#X connect 38 0 0 1;
#X connect 39 0 0 2;
#X connect 40 0 0 3;
#X connect 41 0 0 4;
#X connect 42 0 0 5;
#X connect 43 0 0 6;
#X connect 44 0 45 0;
#X connect 45 0 46 0;
#X connect 46 0 47 0;
#X connect 48 0 49 0;
#X connect 49 0 50 0;
#X connect 51 0 52 0;
#X connect 52 0 53 0;
#X connect 54 0 55 0;
#X connect 55 0 56 0;
#X connect 57 0 58 0;
#X connect 58 0 59 0;
#X connect 60 0 61 0;
#X connect 61 0 62 0;
#X connect 63 0 64 0;
#X connect 64 0 65 0;
#X connect 66 0 67 0;
#X connect 67 0 68 0;
#X connect 69 0 70 0;
#X connect 70 0 71 0;
#X connect 72 0 73 0;
#X connect 73 0 74 0;
#X connect 75 0 76 0;
#X connect 76 0 77 0;
#X connect 78 0 79 0;
#X connect 79 0 80 0;
#X connect 81 0 48 0;
#X connect 82 0 51 0;
#X connect 83 0 54 0;
#X connect 84 0 57 0;
#X connect 85 0 60 0;
#X connect 86 0 63 0;
#X connect 87 0 66 0;
#X connect 88 0 69 0;
#X connect 89 0 72 0;
#X connect 90 0 75 0;
#X connect 91 0 78 0;
