#N canvas 116 41 1451 838 10;
#X obj 554 431 6_killspaces;
#X obj 554 402 tosymbol;
#X obj 554 453 unpack s f;
#X obj 554 378 6_pak 7, f 33;
#X obj 150 147 bng 15 250 50 0 empty empty empty 17 7 0 10 -262144
-1 -1;
#X obj 150 385 s numlist;
#X obj 181 147 bng 15 250 50 0 empty empty empty 17 7 0 10 -262144
-1 -1;
#X obj 214 147 bng 15 250 50 0 empty empty empty 17 7 0 10 -262144
-1 -1;
#X obj 247 147 bng 15 250 50 0 empty empty empty 17 7 0 10 -262144
-1 -1;
#X obj 278 147 bng 15 250 50 0 empty empty empty 17 7 0 10 -262144
-1 -1;
#X obj 311 147 bng 15 250 50 0 empty empty empty 17 7 0 10 -262144
-1 -1;
#X obj 343 147 bng 15 250 50 0 empty empty empty 17 7 0 10 -262144
-1 -1;
#X obj 376 147 bng 15 250 50 0 empty empty empty 17 7 0 10 -262144
-1 -1;
#X obj 407 147 bng 15 250 50 0 empty empty empty 17 7 0 10 -262144
-1 -1;
#X obj 440 147 bng 15 250 50 0 empty empty empty 17 7 0 10 -262144
-1 -1;
#X obj 749 240 r numlist;
#X obj 554 326 gate 7, f 33;
#X obj 554 156 bng 15 250 50 0 empty empty empty 17 7 0 10 -262144
-1 -1;
#X obj 554 179 t b;
#X msg 626 130 hang_up_phone;
#X obj 626 183 bng 15 250 50 0 empty empty empty 17 7 0 10 -262144
-1 -1;
#X obj 554 223 6_cup 1 1;
#X floatatom 554 256 5 0 0 0 - - -;
#X obj 554 290 t f f;
#X msg 626 205 1;
#X obj 648 253 select 7;
#X msg 648 280 0;
#X obj 626 158 t b b;
#X obj 626 106 loadbang;
#X obj 554 530 bng 30 250 50 0 empty empty empty 17 7 0 10 -262144
-1 -1;
#X msg 150 172 a;
#X msg 181 172 b;
#X msg 214 172 c;
#X msg 247 172 d;
#X msg 278 172 e;
#X msg 311 172 f;
#X msg 343 172 g;
#X msg 376 172 h;
#X msg 407 172 i;
#X msg 440 172 j;
#X obj 749 287 t a b;
#X obj 554 501 6_match abcdefg;
#X obj 657 529 bng 30 250 50 0 empty empty empty 17 7 0 10 -262144
-1 -1;
#X obj 657 500 6_match jihgfed;
#X text 720 130 < press here to simulate hanging up phone;
#X obj 766 528 bng 30 250 50 0 empty empty empty 17 7 0 10 -262144
-1 -1;
#X obj 766 499 6_match acegija;
#X text 148 113 1;
#X text 183 113 2;
#X text 215 113 3;
#X text 250 113 4;
#X text 279 113 5;
#X text 314 113 6;
#X text 346 113 7;
#X text 381 113 8;
#X text 405 113 9;
#X text 440 113 0;
#X text 551 581 123-4567;
#X text 651 580 098-7654;
#X text 764 577 135-7901;
#X obj 953 584 s reset;
#X obj 974 70 r reset;
#X msg 1001 217 z;
#X obj 974 98 t b;
#X text 1117 133 requires pdlua library installed;
#X connect 0 0 2 0;
#X connect 1 0 0 0;
#X connect 2 0 41 0;
#X connect 2 0 43 0;
#X connect 2 0 46 0;
#X connect 3 0 1 0;
#X connect 4 0 30 0;
#X connect 6 0 31 0;
#X connect 7 0 32 0;
#X connect 8 0 33 0;
#X connect 9 0 34 0;
#X connect 10 0 35 0;
#X connect 11 0 36 0;
#X connect 12 0 37 0;
#X connect 13 0 38 0;
#X connect 14 0 39 0;
#X connect 15 0 40 0;
#X connect 16 0 3 0;
#X connect 16 1 3 1;
#X connect 16 2 3 2;
#X connect 16 3 3 3;
#X connect 16 4 3 4;
#X connect 16 5 3 5;
#X connect 16 6 3 6;
#X connect 17 0 18 0;
#X connect 18 0 21 0;
#X connect 19 0 27 0;
#X connect 20 0 24 0;
#X connect 21 0 22 0;
#X connect 22 0 23 0;
#X connect 23 0 16 0;
#X connect 23 1 25 0;
#X connect 24 0 21 1;
#X connect 25 0 26 0;
#X connect 26 0 21 1;
#X connect 27 0 20 0;
#X connect 27 1 62 0;
#X connect 28 0 19 0;
#X connect 29 0 60 0;
#X connect 30 0 5 0;
#X connect 31 0 5 0;
#X connect 32 0 5 0;
#X connect 33 0 5 0;
#X connect 34 0 5 0;
#X connect 35 0 5 0;
#X connect 36 0 5 0;
#X connect 37 0 5 0;
#X connect 38 0 5 0;
#X connect 39 0 5 0;
#X connect 40 0 16 1;
#X connect 40 1 17 0;
#X connect 41 0 29 0;
#X connect 42 0 60 0;
#X connect 43 0 42 0;
#X connect 45 0 60 0;
#X connect 46 0 45 0;
#X connect 61 0 63 0;
#X connect 62 0 3 6;
#X connect 63 0 19 0;
