#N canvas 352 132 873 682 12;
#X obj 127 172 grid grid1 200 0 1023 200 0 1023 0 1 1 10 10 354 358
;
#X floatatom 137 394 5 0 0 0 - - -;
#X floatatom 296 398 5 0 0 0 - - -;
#X text 185 393 X value;
#X text 336 398 Y value;
#X obj 128 510 hsl 128 15 0 1 0 0 empty empty empty -2 -8 0 10 -262144
-1 -1 12700 1;
#X obj 304 506 hsl 128 15 0 1 0 0 empty empty empty -2 -8 0 10 -262144
-1 -1 881 1;
#X obj 133 451 / 1023;
#X obj 300 451 / 1023;
#X obj 205 16 hsl 128 15 0 1 0 0 empty empty empty -2 -8 0 10 -262144
-1 -1 0 1;
#X obj 430 7 hsl 128 15 0 1 0 0 empty empty empty -2 -8 0 10 -262144
-1 -1 0 1;
#X obj 199 39 * 1023;
#X obj 250 117 pack f f;
#X msg 243 142 values \$1 \$2;
#X obj 426 35 * 1023;
#X obj 424 98 t b f;
#X text 410 233 requires [grid] object: in the unauthorized library
(use Help > Find Externals);
#X obj 146 37 r jx:;
#X obj 365 35 r jy:;
#X floatatom 196 66 5 0 0 0 - - -;
#X floatatom 422 67 5 0 0 0 - - -;
#X connect 0 0 1 0;
#X connect 0 1 2 0;
#X connect 1 0 7 0;
#X connect 2 0 8 0;
#X connect 7 0 5 0;
#X connect 8 0 6 0;
#X connect 9 0 11 0;
#X connect 10 0 14 0;
#X connect 11 0 19 0;
#X connect 12 0 13 0;
#X connect 13 0 0 0;
#X connect 14 0 20 0;
#X connect 15 0 12 0;
#X connect 15 1 12 1;
#X connect 17 0 19 0;
#X connect 18 0 20 0;
#X connect 19 0 12 0;
#X connect 20 0 15 0;
