#N canvas 122 114 1452 921 12;
#X obj 210 259 tabread~ arrayname;
#N canvas 0 22 450 278 (subpatch) 0;
#X array arrayname 100 float 3;
#A 0 0 0 0 0 0 0 0 0 0 0 0 0 0 0 0 0 0 0 0 0 0 0 0 0 0 0 0 0 0 0 0
0 0 0 0 0 0 0 0 0 0 0 0 0 0 0 0 0 0 0 0 0 0 0 0 0 0 0 0 0 0 0 0 0 0
0 0 0 0 0 0 0 0 0 0 0 0 0 0 0 0 0 0 0 0 0 0 0 0 0 0 0 0 0 0 0 0 0 0
0;
#X coords 0 1 100 -1 200 140 1;
#X restore 482 279 graph;
#X obj 477 78 ctlin 51;
#X obj 476 157 tgl 15 0 empty empty empty 17 7 0 10 -262144 -1 -1 1
1;
#X floatatom 475 103 5 0 0 0 - - -;
#X obj 475 126 / 127;
#X obj 220 223 phasor~;
#X floatatom 224 194 5 0 0 0 - - -;
#X obj 279 345 *~;
#X obj 262 408 send~ something;
#X obj 492 212 line~;
#X msg 481 186 \$1 100;
#X obj 181 72 ctlin 1;
#X floatatom 179 109 5 0 0 0 - - -;
#X text 59 153 speed adjustment here;
#X text 240 71 potentiometer / sensor;
#X text 560 72 push button;
#X msg 296 191 0;
#X obj 406 191 select 1;
#X obj 417 223 bng 15 250 50 0 empty empty empty 17 7 0 10 -262144
-1 -1;
#X connect 0 0 8 0;
#X connect 2 0 4 0;
#X connect 3 0 11 0;
#X connect 3 0 18 0;
#X connect 4 0 5 0;
#X connect 5 0 3 0;
#X connect 6 0 0 0;
#X connect 7 0 6 0;
#X connect 8 0 9 0;
#X connect 10 0 8 1;
#X connect 11 0 10 0;
#X connect 12 0 13 0;
#X connect 17 0 6 1;
#X connect 18 0 17 0;
#X connect 18 0 19 0;
