#N canvas 221 104 1529 954 10;
#X msg 53 169 close;
#X obj 45 8 cnv 15 440 60 empty empty empty 20 12 0 14 -200075 -66577
0;
#X msg 44 142 devices;
#X obj 44 256 s;
#X obj 44 234 serial_print any;
#X text 46 88 Requires [comport] object \; install under Help > Find
Externals, f 72;
#X text 52 16 [serial_print]: abstraction that works with Arduinos'
Serial.print() and Serial.println() functions (with the use of [comport]).
It was written by Alexandros Drymonitis. \; See https://github.com/alexdrymonitis/Arduino_Pd
;
#X floatatom 319 259 5 0 0 0 - - -;
#X symbolatom 137 255 20 0 0 0 - - -;
#X obj 2 141 r rgb;
#X floatatom 320 355 5 0 0 0 - - -;
#X obj 44 212 comport 1 9600;
#X obj 320 314 mod 20;
#X msg 104 169 open 1;
#X obj 319 186 r Left:;
#X floatatom 391 260 5 0 0 0 - - -;
#X floatatom 392 356 5 0 0 0 - - -;
#X obj 392 315 mod 20;
#X obj 391 187 r Right:;
#X obj 492 172 r digital_values:;
#X floatatom 492 280 5 0 0 0 - - -;
#X obj 492 251 unpack f f f f f;
#X floatatom 535 280 5 0 0 0 - - -;
#X floatatom 575 280 5 0 0 0 - - -;
#X floatatom 613 279 5 0 0 0 - - -;
#X floatatom 656 281 5 0 0 0 - - -;
#X floatatom 624 167 5 0 0 1 - - -;
#X floatatom 668 169 5 0 0 1 - - -;
#X floatatom 712 172 5 0 0 1 - - -;
#X obj 609 59 r analog_values:;
#X floatatom 753 172 5 0 0 1 - - -;
#X obj 612 86 unpack f f f f f f f;
#X floatatom 799 170 5 0 0 1 - - -;
#X floatatom 842 172 5 0 0 1 - - -;
#X obj 131 391 r Cap:;
#X floatatom 131 464 5 0 0 0 - - -;
#X obj 131 420 route 0 1 2 3 4 5 6 7 8 9 10 11, f 83;
#X obj 131 487 tgl 15 0 empty empty empty 17 7 0 10 -262144 -1 -1 0
1;
#X floatatom 172 464 5 0 0 0 - - -;
#X obj 172 487 tgl 15 0 empty empty empty 17 7 0 10 -262144 -1 -1 0
1;
#X floatatom 213 464 5 0 0 0 - - -;
#X obj 213 487 tgl 15 0 empty empty empty 17 7 0 10 -262144 -1 -1 0
1;
#X floatatom 254 464 5 0 0 0 - - -;
#X obj 254 487 tgl 15 0 empty empty empty 17 7 0 10 -262144 -1 -1 0
1;
#X floatatom 296 464 5 0 0 0 - - -;
#X obj 296 487 tgl 15 0 empty empty empty 17 7 0 10 -262144 -1 -1 0
1;
#X floatatom 337 464 5 0 0 0 - - -;
#X obj 337 487 tgl 15 0 empty empty empty 17 7 0 10 -262144 -1 -1 0
1;
#X floatatom 378 464 5 0 0 0 - - -;
#X obj 378 487 tgl 15 0 empty empty empty 17 7 0 10 -262144 -1 -1 0
1;
#X floatatom 419 464 5 0 0 0 - - -;
#X obj 419 487 tgl 15 0 empty empty empty 17 7 0 10 -262144 -1 -1 0
1;
#X floatatom 461 464 5 0 0 0 - - -;
#X obj 461 487 tgl 15 0 empty empty empty 17 7 0 10 -262144 -1 -1 0
1;
#X floatatom 502 464 5 0 0 0 - - -;
#X obj 502 487 tgl 15 0 empty empty empty 17 7 0 10 -262144 -1 -1 0
1;
#X floatatom 543 464 5 0 0 0 - - -;
#X obj 543 487 tgl 15 0 empty empty empty 17 7 0 10 -262144 -1 -1 0
1;
#X floatatom 584 464 5 0 0 0 - - -;
#X obj 584 487 tgl 15 0 empty empty empty 17 7 0 10 -262144 -1 -1 0
1;
#X floatatom 626 464 5 0 0 0 - - -;
#X obj 626 487 tgl 15 0 empty empty empty 17 7 0 10 -262144 -1 -1 0
1;
#X floatatom 680 451 5 0 0 0 - - -;
#X obj 680 378 r count:;
#X floatatom 750 451 5 0 0 0 - - -;
#X obj 750 378 r difference:;
#X obj 838 378 r pressed:;
#X obj 838 427 bng 15 250 50 0 empty empty empty 17 7 0 10 -262144
-1 -1;
#X floatatom 142 624 5 0 0 0 - - -;
#X floatatom 234 624 5 0 0 0 - - -;
#X obj 340 552 r button:;
#X floatatom 340 606 5 0 0 0 - - -;
#X obj 142 551 r jx:;
#X obj 234 551 r jy:;
#X floatatom 532 651 5 0 0 0 - - -;
#X obj 532 578 r proximity:;
#X floatatom 624 651 5 0 0 0 - - -;
#X obj 624 578 r ambientlight:;
#X floatatom 735 652 5 0 0 0 - - -;
#X obj 735 579 r whitelight:;
#X obj 970 690 s rgb;
#X obj 970 621 unpack f f f;
#X obj 951 543 t b l;
#X msg 1015 516 0 255 255;
#X msg 1014 497 255 0 255;
#X msg 1013 477 255 255 0;
#X text 1083 478 yellow;
#X text 1083 498 magenta;
#X text 1083 516 cyan;
#X msg 875 474 255 0 0;
#X msg 876 493 0 255 0;
#X msg 877 513 0 0 255;
#X text 945 475 red;
#X text 945 495 green;
#X text 945 513 blue;
#X text 608 35 potentiometers;
#X text 491 150 pushbuttons;
#X text 325 157 rotary Encoders;
#X text 131 375 capacitive sensor;
#X text 154 523 joystick;
#X text 543 548 proximity / light;
#X text 690 352 Twist encoder;
#X text 1017 436 Twist encoder light;
#X floatatom 884 174 5 0 0 1 - - -;
#X obj 970 651 pack f f f, f 27;
#X connect 0 0 11 0;
#X connect 2 0 11 0;
#X connect 4 0 3 0;
#X connect 4 1 3 1;
#X connect 4 1 8 0;
#X connect 7 0 12 0;
#X connect 9 0 11 0;
#X connect 11 0 4 0;
#X connect 12 0 10 0;
#X connect 13 0 11 0;
#X connect 14 0 7 0;
#X connect 15 0 17 0;
#X connect 17 0 16 0;
#X connect 18 0 15 0;
#X connect 19 0 21 0;
#X connect 21 0 20 0;
#X connect 21 1 22 0;
#X connect 21 2 23 0;
#X connect 21 3 24 0;
#X connect 21 4 25 0;
#X connect 29 0 31 0;
#X connect 31 0 26 0;
#X connect 31 1 27 0;
#X connect 31 2 28 0;
#X connect 31 3 30 0;
#X connect 31 4 32 0;
#X connect 31 5 33 0;
#X connect 31 6 103 0;
#X connect 34 0 36 0;
#X connect 35 0 37 0;
#X connect 36 0 35 0;
#X connect 36 1 38 0;
#X connect 36 2 40 0;
#X connect 36 3 42 0;
#X connect 36 4 44 0;
#X connect 36 5 46 0;
#X connect 36 6 48 0;
#X connect 36 7 50 0;
#X connect 36 8 52 0;
#X connect 36 9 54 0;
#X connect 36 10 56 0;
#X connect 36 11 58 0;
#X connect 36 12 60 0;
#X connect 38 0 39 0;
#X connect 40 0 41 0;
#X connect 42 0 43 0;
#X connect 44 0 45 0;
#X connect 46 0 47 0;
#X connect 48 0 49 0;
#X connect 50 0 51 0;
#X connect 52 0 53 0;
#X connect 54 0 55 0;
#X connect 56 0 57 0;
#X connect 58 0 59 0;
#X connect 60 0 61 0;
#X connect 63 0 62 0;
#X connect 65 0 64 0;
#X connect 66 0 67 0;
#X connect 70 0 71 0;
#X connect 72 0 68 0;
#X connect 73 0 69 0;
#X connect 75 0 74 0;
#X connect 77 0 76 0;
#X connect 79 0 78 0;
#X connect 81 0 104 0;
#X connect 81 1 104 1;
#X connect 81 2 104 2;
#X connect 82 0 104 0;
#X connect 82 1 81 0;
#X connect 83 0 82 0;
#X connect 84 0 82 0;
#X connect 85 0 82 0;
#X connect 89 0 82 0;
#X connect 90 0 82 0;
#X connect 91 0 82 0;
#X connect 104 0 80 0;
