#N canvas 626 97 1039 695 12;
#X obj 168 113 vstplugin~;
#X obj 153 183 *~ 0.5;
#X obj 213 181 *~ 0.5;
#X obj 178 235 dac~;
#X obj 68 13 bng 15 250 50 0 empty empty empty 17 7 0 10 -262144 -1
-1;
#X obj 68 33 openpanel;
#X msg 68 57 open -e \$1;
#X msg 166 68 close;
#X msg 243 69 vis \$1;
#X obj 243 49 tgl 15 0 empty empty empty 17 7 0 10 -262144 -1 -1 1
1;
#X msg 507 111 midi_note 1 60 64;
#X msg 508 44 midi_note 1 80 127;
#X msg 505 71 midi_noteoff 1 80;
#X obj 29 508 pdcontrol;
#X msg 29 481 browse https://www.dskmusic.com/dsk-saxophones/;
#X msg 505 135 midi_noteoff 1 60;
#X text 669 41 on: channel note velocity;
#X text 669 68 off: channel note;
#X text 30 455 something to try \, saxophone VST;
#N canvas 0 23 1287 754 makenote 0;
#X obj 448 390 pack 1 80 127;
#X floatatom 579 156 5 0 0 0 - - -;
#X floatatom 536 366 5 0 0 0 - - -;
#X obj 448 416 list prepend midi_note;
#X msg 448 365 1;
#X obj 448 441 list trim;
#X floatatom 686 364 5 0 0 0 - - -;
#X msg 626 365 1;
#X obj 626 414 list prepend midi_noteoff;
#X obj 626 389 pack 1 80;
#X obj 626 439 list trim;
#X obj 416 91 bng 15 250 50 0 empty empty empty 17 7 0 10 -262144 -1
-1;
#X obj 619 304 bng 15 250 50 0 empty empty empty 17 7 0 10 -262144
-1 -1;
#X obj 619 278 delay 100;
#X floatatom 713 161 5 0 0 0 - - -;
#X floatatom 651 158 5 0 0 0 - - -;
#X obj 594 84 route /note /velocity /duration;
#X obj 605 42 inlet;
#X obj 380 50 inlet;
#X obj 458 517 outlet;
#X connect 0 0 3 0;
#X connect 1 0 0 1;
#X connect 1 0 6 0;
#X connect 2 0 0 2;
#X connect 3 0 5 0;
#X connect 4 0 0 0;
#X connect 5 0 19 0;
#X connect 6 0 9 1;
#X connect 7 0 9 0;
#X connect 8 0 10 0;
#X connect 9 0 8 0;
#X connect 10 0 19 0;
#X connect 11 0 4 0;
#X connect 11 0 13 0;
#X connect 12 0 7 0;
#X connect 13 0 12 0;
#X connect 14 0 13 1;
#X connect 15 0 2 0;
#X connect 16 0 1 0;
#X connect 16 1 15 0;
#X connect 16 2 14 0;
#X connect 17 0 16 0;
#X connect 18 0 11 0;
#X restore 537 383 pd makenote;
#X obj 528 335 bng 15 250 50 0 empty empty empty 17 7 0 10 -262144
-1 -1;
#X msg 688 335 /note \$1;
#X floatatom 685 311 5 0 0 0 - - -;
#X floatatom 764 310 5 0 0 0 - - -;
#X msg 763 335 /velocity \$1;
#X floatatom 863 310 5 0 0 0 - - -;
#X msg 866 334 /duration \$1;
#X obj 526 232 tgl 15 0 empty empty empty 17 7 0 10 -262144 -1 -1 0
1;
#X obj 533 289 t b b;
#N canvas 454 85 1342 919 scales 0;
#X obj 259 219 ftom;
#X floatatom 259 161 15 0 0 0 - - -;
#X obj 209 457 / 12;
#X obj 209 479 - 1;
#X floatatom 209 501 5 0 0 1 register - -;
#X floatatom 260 456 5 0 0 1 midi_note - -;
#X obj 259 139 mtof;
#X obj 209 567 * 12;
#X obj 209 604 +;
#X floatatom 209 626 5 0 0 0 - - -;
#X obj 209 735 outlet;
#X obj 209 543 int;
#X obj 270 276 t f f;
#X obj 532 301 % 12;
#X floatatom 532 334 5 0 0 0 pitch_class - -;
#X obj 532 355 select 0 1 2 3 4 5 6 7 8 9 10 11, f 55;
#X obj 533 414 int;
#X obj 561 414 int;
#X obj 587 414 int;
#X obj 615 414 int;
#X obj 641 414 int;
#X obj 669 414 int;
#X obj 695 414 int;
#X obj 723 414 int;
#X obj 750 414 int;
#X obj 778 414 int;
#X obj 805 413 int;
#X obj 833 411 int;
#X floatatom 661 452 5 0 0 0 mapped_pitch - -;
#X obj 656 308 unpack 0 0 0 0 0 0 0 0 0 0 0 0;
#X msg 632 50 0 1 2 3 4 5 6 7 8 9 10 11;
#X obj 259 4 inlet;
#X text 849 45 chromatic;
#X msg 629 74 0 0 2 2 4 4 6 6 8 8 10 10;
#X text 865 73 whole-tone;
#X msg 1101 523 0 0 0 3 3 3 6 6 6 9 9 9;
#X text 1297 522 diminshed 7th chord;
#X msg 1100 550 0 0 0 0 4 4 4 4 8 8 8 8;
#X text 1276 552 augmented chord;
#X msg 1102 578 0 0 0 0 0 0 6 6 6 6 6 6;
#X text 1282 576 tritone;
#X msg 1093 54 0 0 2 2 4 4 5 5 7 7 9 11;
#X text 1286 48 Ionian;
#X text 1284 75 Dorian;
#X msg 1091 83 0 0 2 2 3 3 5 5 7 7 8 10;
#X msg 1093 131 0 0 1 1 3 3 5 5 7 7 8 10;
#X text 1288 130 Phrygian;
#X text 1280 158 Lydian;
#X msg 1090 174 0 0 2 2 4 4 6 6 7 7 9 11;
#X msg 1093 224 0 0 2 2 4 4 5 5 7 7 9 10;
#X msg 1090 258 0 0 2 2 3 3 5 5 7 7 8 10;
#X text 1294 219 Mixolydian;
#X text 1290 256 Aeolian;
#X msg 1087 296 0 0 1 1 3 3 5 5 6 6 8 10;
#X text 1295 292 Locrian;
#X msg 702 32 0 0 2 2 2 4 4 4 7 7 9 9;
#X text 935 32 major pentatonic;
#X msg 626 98 0 0 3 3 5 5 6 6 7 7 10 10;
#X text 839 91 blues;
#X msg 1097 495 0 0 2 2 4 4 6 6 7 7 9 9;
#X text 1290 494 acoustic;
#X text 838 135 major;
#X text 854 154 minor;
#X msg 624 140 0 2 2 4 4 5 5 7 7 9 9 11;
#X msg 625 162 0 2 2 3 3 5 5 7 7 8 8 10;
#X obj 528 1 inlet;
#X obj 528 27 route /scale;
#X obj 504 100 print;
#X obj 690 4 loadbang;
#X connect 0 0 5 0;
#X connect 0 0 12 0;
#X connect 1 0 0 0;
#X connect 2 0 3 0;
#X connect 3 0 4 0;
#X connect 4 0 11 0;
#X connect 6 0 1 0;
#X connect 7 0 8 0;
#X connect 8 0 9 0;
#X connect 9 0 10 0;
#X connect 11 0 7 0;
#X connect 12 0 2 0;
#X connect 12 1 13 0;
#X connect 13 0 14 0;
#X connect 14 0 15 0;
#X connect 15 0 16 0;
#X connect 15 1 17 0;
#X connect 15 2 18 0;
#X connect 15 3 19 0;
#X connect 15 4 20 0;
#X connect 15 5 21 0;
#X connect 15 6 22 0;
#X connect 15 7 23 0;
#X connect 15 8 24 0;
#X connect 15 9 25 0;
#X connect 15 10 26 0;
#X connect 15 11 27 0;
#X connect 16 0 28 0;
#X connect 17 0 28 0;
#X connect 18 0 28 0;
#X connect 19 0 28 0;
#X connect 20 0 28 0;
#X connect 21 0 28 0;
#X connect 22 0 28 0;
#X connect 23 0 28 0;
#X connect 24 0 28 0;
#X connect 25 0 28 0;
#X connect 26 0 28 0;
#X connect 27 0 28 0;
#X connect 28 0 8 1;
#X connect 29 0 16 1;
#X connect 29 1 17 1;
#X connect 29 2 18 1;
#X connect 29 3 19 1;
#X connect 29 4 20 1;
#X connect 29 5 21 1;
#X connect 29 6 22 1;
#X connect 29 7 23 1;
#X connect 29 8 24 1;
#X connect 29 9 25 1;
#X connect 29 10 26 1;
#X connect 29 11 27 1;
#X connect 30 0 29 0;
#X connect 31 0 6 0;
#X connect 33 0 29 0;
#X connect 35 0 29 0;
#X connect 37 0 29 0;
#X connect 39 0 29 0;
#X connect 41 0 29 0;
#X connect 44 0 29 0;
#X connect 45 0 29 0;
#X connect 48 0 29 0;
#X connect 49 0 29 0;
#X connect 50 0 29 0;
#X connect 53 0 29 0;
#X connect 55 0 29 0;
#X connect 57 0 29 0;
#X connect 59 0 29 0;
#X connect 63 0 29 0;
#X connect 64 0 29 0;
#X connect 65 0 66 0;
#X connect 66 0 29 0;
#X connect 66 0 67 0;
#X connect 68 0 55 0;
#X restore 683 284 pd scales;
#X obj 684 179 f 1;
#X obj 722 177 + 1;
#X floatatom 683 204 5 0 0 0 - - -;
#X obj 683 237 mod 36;
#X obj 683 261 + 60;
#X obj 526 257 metro 250;
#X connect 0 0 1 0;
#X connect 0 1 2 0;
#X connect 1 0 3 0;
#X connect 2 0 3 1;
#X connect 4 0 5 0;
#X connect 5 0 6 0;
#X connect 6 0 0 0;
#X connect 7 0 0 0;
#X connect 8 0 0 0;
#X connect 9 0 8 0;
#X connect 10 0 0 0;
#X connect 11 0 0 0;
#X connect 12 0 0 0;
#X connect 14 0 13 0;
#X connect 15 0 0 0;
#X connect 19 0 0 0;
#X connect 20 0 19 0;
#X connect 21 0 19 1;
#X connect 22 0 21 0;
#X connect 23 0 24 0;
#X connect 24 0 19 1;
#X connect 25 0 26 0;
#X connect 26 0 19 1;
#X connect 27 0 35 0;
#X connect 28 0 20 0;
#X connect 28 1 30 0;
#X connect 29 0 22 0;
#X connect 30 0 31 0;
#X connect 30 0 32 0;
#X connect 31 0 30 1;
#X connect 32 0 33 0;
#X connect 33 0 34 0;
#X connect 34 0 29 0;
#X connect 35 0 28 0;
