#N canvas 201 46 1019 681 10;
#X msg 53 169 close;
#X obj 45 8 cnv 15 440 60 empty empty empty 20 12 0 14 -200075 -66577
0;
#X msg 44 142 devices;
#X floatatom 104 150 5 0 0 0 - - -;
#X msg 104 169 open \$1;
#X obj 44 256 s;
#X obj 44 234 serial_print any;
#X text 46 88 Requires [comport] object \; install under Help > Find
Externals, f 72;
#X text 52 16 [serial_print]: abstraction that works with Arduinos'
Serial.print() and Serial.println() functions (with the use of [comport]).
It was written by Alexandros Drymonitis. \; See https://github.com/alexdrymonitis/Arduino_Pd
;
#X floatatom 268 221 5 0 0 0 - - -;
#X symbolatom 137 255 20 0 0 0 - - -;
#X obj 268 148 r count:;
#X obj 478 155 r pressed:;
#X obj 478 204 bng 15 250 50 0 empty empty empty 17 7 0 10 -262144
-1 -1;
#X floatatom 338 221 5 0 0 0 - - -;
#X obj 338 148 r difference:;
#X obj 430 301 select 1 -1;
#X obj 430 333 bng 15 250 50 0 empty empty empty 17 7 0 10 -262144
-1 -1;
#X obj 461 333 bng 15 250 50 0 empty empty empty 17 7 0 10 -262144
-1 -1;
#X obj 44 212 comport 5 9600;
#X obj 390 563 f;
#X floatatom 378 500 5 0 0 0 - - -;
#X obj 378 519 clip 0 255;
#X obj 82 503 t b b b;
#X text 376 481 out 2;
#X obj 82 421 bng 15 250 50 0 empty empty empty 17 7 0 10 -262144 -1
-1;
#X obj 250 597 s rgb;
#X obj 2 141 r rgb;
#X text 80 406 send rgb values;
#X obj 241 408 hsl 128 15 0 255 0 0 empty empty empty -2 -8 0 10 -258113
-1 -1 0 1;
#X obj 311 427 hsl 128 15 0 255 0 0 empty empty empty -2 -8 0 10 -4034
-1 -1 0 1;
#X obj 381 448 hsl 128 15 0 255 0 0 empty empty empty -2 -8 0 10 -4160
-1 -1 0 1;
#X obj 378 539 t b f;
#X obj 320 563 f;
#X floatatom 308 500 5 0 0 0 - - -;
#X obj 308 519 clip 0 255;
#X obj 308 539 t b f;
#X obj 250 563 f;
#X floatatom 238 500 5 0 0 0 - - -;
#X obj 238 519 clip 0 255;
#X obj 238 539 t b f;
#X text 306 481 out 1;
#X text 236 481 out 0;
#X obj 269 276 % 20;
#X floatatom 269 317 5 0 0 0 - - -;
#X obj 82 463 bangfilter 100;
#X connect 0 0 19 0;
#X connect 2 0 19 0;
#X connect 3 0 4 0;
#X connect 4 0 19 0;
#X connect 6 0 5 0;
#X connect 6 1 5 1;
#X connect 6 1 10 0;
#X connect 9 0 43 0;
#X connect 11 0 9 0;
#X connect 12 0 13 0;
#X connect 14 0 16 0;
#X connect 15 0 14 0;
#X connect 16 0 17 0;
#X connect 16 1 18 0;
#X connect 19 0 6 0;
#X connect 20 0 26 0;
#X connect 21 0 22 0;
#X connect 22 0 32 0;
#X connect 23 0 20 0;
#X connect 23 1 33 0;
#X connect 23 2 37 0;
#X connect 25 0 45 0;
#X connect 27 0 19 0;
#X connect 29 0 38 0;
#X connect 30 0 34 0;
#X connect 31 0 21 0;
#X connect 32 0 25 0;
#X connect 32 1 20 1;
#X connect 33 0 26 0;
#X connect 34 0 35 0;
#X connect 35 0 36 0;
#X connect 36 0 25 0;
#X connect 36 1 33 1;
#X connect 37 0 26 0;
#X connect 38 0 39 0;
#X connect 39 0 40 0;
#X connect 40 0 25 0;
#X connect 40 1 37 1;
#X connect 43 0 44 0;
#X connect 45 0 23 0;
