#N canvas 312 73 973 839 12;
#X obj 427 725 dac~;
#X obj 315 144 bng 30 250 50 0 empty empty empty 17 7 0 10 -262144
-1 -1;
#N canvas 288 78 1005 533 player 0;
#X obj 83 60 random 3;
#X floatatom 84 88 5 0 0 0 - - -;
#X obj 84 125 select 0 1 2;
#X obj 89 16 inlet;
#X obj 245 436 outlet~;
#X obj 262 354 ps.sampleplay~ go1;
#X obj 82 174 t b b;
#X obj 323 176 t b b;
#X obj 564 175 t b b;
#X obj 180 22 bng 15 250 50 0 empty empty empty 17 7 0 10 -262144 -1
-1;
#X msg 115 216 \; go1 /read ./drums/Conga1.wav;
#X msg 354 220 \; go1 /read ./drums/Conga2.wav;
#X msg 597 217 \; go1 /read ./drums/Conga3.wav;
#X msg 467 320 /open;
#X connect 0 0 1 0;
#X connect 1 0 2 0;
#X connect 2 0 6 0;
#X connect 2 1 7 0;
#X connect 2 2 8 0;
#X connect 3 0 0 0;
#X connect 5 0 4 0;
#X connect 6 0 5 0;
#X connect 6 1 10 0;
#X connect 7 0 5 0;
#X connect 7 1 11 0;
#X connect 8 0 5 0;
#X connect 8 1 12 0;
#X connect 9 0 0 0;
#X connect 11 0 5 0;
#X connect 12 0 5 0;
#X connect 13 0 5 1;
#X restore 315 181 pd player;
#X obj 315 227 ps.mixch~;
#X obj 399 226 ps.mixch~;
#X obj 483 225 ps.mixch~;
#X obj 567 224 ps.mixch~;
#X msg 106 149 \; go1 /speed \$1;
#X floatatom 114 112 5 0 0 0 - - -;
#X connect 1 0 2 0;
#X connect 2 0 3 0;
#X connect 3 0 0 0;
#X connect 3 1 0 1;
#X connect 4 0 0 0;
#X connect 4 1 0 1;
#X connect 5 0 0 0;
#X connect 5 1 0 1;
#X connect 6 0 0 0;
#X connect 6 1 0 1;
#X connect 8 0 7 0;
