#N canvas 416 23 1228 752 12;
#X obj 150 668 dac~;
#X obj 203 212 soundfiler;
#N canvas 0 22 450 300 (subpatch) 0;
#X array sound1 4204 float 2;
#X coords 0 1 4204 -1 200 140 1 0 0;
#X restore 576 84 graph;
#X obj 288 279 expr 44100 / $f1;
#X floatatom 288 316 10 0 0 0 - - -;
#X obj 288 375 phasor~;
#X obj 220 408 *~;
#X obj 147 630 *~ 0.7;
#X obj 344 219 bng 15 250 50 0 empty empty empty 17 7 0 10 -262144
-1 -1;
#X text 367 217 <- reset normal speed;
#X text 368 315 <- playback speed;
#X obj 288 252 f;
#X floatatom 198 372 10 0 0 0 - - -;
#N canvas 0 22 450 300 (subpatch) 0;
#X array sound2 5304 float 2;
#X coords 0 1 5304 -1 200 140 1 0 0;
#X restore 576 239 graph;
#N canvas 0 22 450 300 (subpatch) 0;
#X array sound3 6839 float 2;
#X coords 0 1 6839 -1 200 140 1 0 0;
#X restore 577 399 graph;
#X obj 220 451 tabread4~ sound1;
#X msg 107 85 read -resize ./drums/Conga1.wav sound1;
#X msg 153 112 read -resize ./drums/Conga2.wav sound2;
#X msg 185 144 read -resize ./drums/Conga3.wav sound3;
#X obj 219 532 tgl 15 0 empty empty empty 17 7 0 10 -262144 -1 -1 1
1;
#X obj 219 581 line~;
#X obj 147 598 *~;
#X msg 219 556 \$1 40;
#X obj 98 450 loadbang;
#X msg 96 478 1;
#X obj 204 249 f;
#X obj 26 178 bng 30 250 50 0 empty empty empty 17 7 0 10 -228856 -258113
-1;
#N canvas 537 86 946 798 randomArraySelect 0;
#X msg 137 379 set sound1;
#X obj 252 126 random 3;
#X obj 253 85 bng 30 250 50 0 empty empty empty 17 7 0 10 -228856 -258113
-1;
#X obj 253 190 select 0 1 2;
#X msg 157 402 set sound2;
#X msg 167 423 set sound3;
#X floatatom 252 157 5 0 0 0 - - -;
#X floatatom 551 371 5 0 0 0 - - -;
#X obj 551 343 array size sound1;
#X obj 551 317 bng 15 250 50 0 empty empty empty 17 7 0 10 -262144
-1 -1;
#X floatatom 552 464 5 0 0 0 - - -;
#X obj 552 410 bng 15 250 50 0 empty empty empty 17 7 0 10 -262144
-1 -1;
#X floatatom 554 563 5 0 0 0 - - -;
#X obj 554 509 bng 15 250 50 0 empty empty empty 17 7 0 10 -262144
-1 -1;
#X obj 552 436 array size sound2;
#X obj 554 535 array size sound3;
#X obj 227 250 t b b;
#X obj 280 250 t b b;
#X obj 335 251 t b b;
#X obj 305 722 outlet;
#X obj 520 714 outlet;
#X obj 250 45 inlet;
#X text 32 459 use set message to change which array tabread4~ uses
;
#X text 506 278 find out what the array size is to set playback speed
correctly;
#X connect 0 0 19 0;
#X connect 1 0 6 0;
#X connect 2 0 1 0;
#X connect 3 0 16 0;
#X connect 3 1 17 0;
#X connect 3 2 18 0;
#X connect 4 0 19 0;
#X connect 5 0 19 0;
#X connect 6 0 3 0;
#X connect 7 0 20 0;
#X connect 8 0 7 0;
#X connect 9 0 8 0;
#X connect 10 0 20 0;
#X connect 11 0 14 0;
#X connect 12 0 20 0;
#X connect 13 0 15 0;
#X connect 14 0 10 0;
#X connect 15 0 12 0;
#X connect 16 0 0 0;
#X connect 16 1 9 0;
#X connect 17 0 4 0;
#X connect 17 1 11 0;
#X connect 18 0 5 0;
#X connect 18 1 13 0;
#X connect 21 0 2 0;
#X restore 27 221 pd randomArraySelect;
#X connect 1 0 25 0;
#X connect 3 0 4 0;
#X connect 4 0 5 0;
#X connect 5 0 6 0;
#X connect 6 0 15 0;
#X connect 7 0 0 0;
#X connect 7 0 0 1;
#X connect 8 0 11 0;
#X connect 11 0 3 0;
#X connect 12 0 6 1;
#X connect 15 0 21 0;
#X connect 16 0 1 0;
#X connect 17 0 1 0;
#X connect 18 0 1 0;
#X connect 19 0 22 0;
#X connect 20 0 21 1;
#X connect 21 0 7 0;
#X connect 22 0 20 0;
#X connect 23 0 24 0;
#X connect 24 0 19 0;
#X connect 25 0 12 0;
#X connect 25 0 11 0;
#X connect 26 0 27 0;
#X connect 27 0 15 0;
#X connect 27 1 25 0;
