#N canvas 332 23 973 902 12;
#X obj 427 725 dac~;
#X obj 315 144 bng 30 250 50 0 empty empty empty 17 7 0 10 -262144
-1 -1;
#X text 143 34 downside: can't dynamically change playback speed;
#N canvas 505 75 911 533 player 0;
#X obj 264 270 readsf~ 2;
#X msg 246 209 open ./drums/Conga1.wav \, 1;
#X msg 465 208 open ./drums/Conga2.wav \, 1;
#X msg 688 208 open ./drums/Conga3.wav \, 1;
#X obj 362 308 bng 15 250 50 0 empty empty empty 17 7 0 10 -262144
-1 -1;
#X obj 424 300 spigot;
#X obj 463 278 tgl 15 0 empty empty empty 17 7 0 10 -262144 -1 -1 0
1;
#X text 491 276 loop;
#X obj 241 83 random 3;
#X floatatom 242 111 5 0 0 0 - - -;
#X obj 242 148 select 0 1 2;
#X obj 247 39 inlet;
#X obj 245 436 outlet~;
#X obj 322 437 outlet~;
#X text 422 324 ^ build something to control which file is looping
;
#X connect 0 0 12 0;
#X connect 0 1 13 0;
#X connect 0 2 4 0;
#X connect 1 0 0 0;
#X connect 2 0 0 0;
#X connect 3 0 0 0;
#X connect 4 0 5 0;
#X connect 6 0 5 1;
#X connect 8 0 9 0;
#X connect 9 0 10 0;
#X connect 10 0 1 0;
#X connect 10 1 2 0;
#X connect 10 2 3 0;
#X connect 11 0 8 0;
#X restore 315 181 pd player;
#X obj 315 227 ps.mixch~;
#X obj 399 143 bng 30 250 50 0 empty empty empty 17 7 0 10 -262144
-1 -1;
#N canvas 505 75 911 533 player 0;
#X obj 264 270 readsf~ 2;
#X obj 362 308 bng 15 250 50 0 empty empty empty 17 7 0 10 -262144
-1 -1;
#X obj 424 300 spigot;
#X obj 463 278 tgl 15 0 empty empty empty 17 7 0 10 -262144 -1 -1 0
1;
#X text 491 276 loop;
#X obj 241 83 random 3;
#X floatatom 242 111 5 0 0 0 - - -;
#X obj 242 148 select 0 1 2;
#X text 422 324 build something to control which file is looping;
#X obj 247 39 inlet;
#X obj 245 436 outlet~;
#X obj 322 437 outlet~;
#X msg 246 209 open ./drums/Cowbell1.wav \, 1;
#X msg 465 208 open ./drums/Cowbell2.wav \, 1;
#X msg 688 208 open ./drums/Cowbell3.wav \, 1;
#X connect 0 0 10 0;
#X connect 0 1 11 0;
#X connect 0 2 1 0;
#X connect 1 0 2 0;
#X connect 3 0 2 1;
#X connect 5 0 6 0;
#X connect 6 0 7 0;
#X connect 7 0 12 0;
#X connect 7 1 13 0;
#X connect 7 2 14 0;
#X connect 9 0 5 0;
#X connect 12 0 0 0;
#X connect 13 0 0 0;
#X connect 14 0 0 0;
#X restore 399 180 pd player;
#X obj 399 226 ps.mixch~;
#X obj 483 142 bng 30 250 50 0 empty empty empty 17 7 0 10 -262144
-1 -1;
#N canvas 505 75 911 533 player 0;
#X obj 264 270 readsf~ 2;
#X msg 246 209 open ./drums/Conga1.wav \, 1;
#X msg 465 208 open ./drums/Conga2.wav \, 1;
#X msg 688 208 open ./drums/Conga3.wav \, 1;
#X obj 362 308 bng 15 250 50 0 empty empty empty 17 7 0 10 -262144
-1 -1;
#X obj 424 300 spigot;
#X obj 463 278 tgl 15 0 empty empty empty 17 7 0 10 -262144 -1 -1 0
1;
#X text 491 276 loop;
#X obj 241 83 random 3;
#X floatatom 242 111 5 0 0 0 - - -;
#X obj 242 148 select 0 1 2;
#X text 422 324 build something to control which file is looping;
#X obj 247 39 inlet;
#X obj 245 436 outlet~;
#X obj 322 437 outlet~;
#X connect 0 0 13 0;
#X connect 0 1 14 0;
#X connect 0 2 4 0;
#X connect 1 0 0 0;
#X connect 2 0 0 0;
#X connect 3 0 0 0;
#X connect 4 0 5 0;
#X connect 6 0 5 1;
#X connect 8 0 9 0;
#X connect 9 0 10 0;
#X connect 10 0 1 0;
#X connect 10 1 2 0;
#X connect 10 2 3 0;
#X connect 12 0 8 0;
#X restore 483 179 pd player;
#X obj 483 225 ps.mixch~;
#X obj 567 141 bng 30 250 50 0 empty empty empty 17 7 0 10 -262144
-1 -1;
#N canvas 505 75 911 533 player 0;
#X obj 264 270 readsf~ 2;
#X msg 246 209 open ./drums/Conga1.wav \, 1;
#X msg 465 208 open ./drums/Conga2.wav \, 1;
#X msg 688 208 open ./drums/Conga3.wav \, 1;
#X obj 362 308 bng 15 250 50 0 empty empty empty 17 7 0 10 -262144
-1 -1;
#X obj 424 300 spigot;
#X obj 463 278 tgl 15 0 empty empty empty 17 7 0 10 -262144 -1 -1 0
1;
#X text 491 276 loop;
#X obj 241 83 random 3;
#X floatatom 242 111 5 0 0 0 - - -;
#X obj 242 148 select 0 1 2;
#X text 422 324 build something to control which file is looping;
#X obj 247 39 inlet;
#X obj 245 436 outlet~;
#X obj 322 437 outlet~;
#X connect 0 0 13 0;
#X connect 0 1 14 0;
#X connect 0 2 4 0;
#X connect 1 0 0 0;
#X connect 2 0 0 0;
#X connect 3 0 0 0;
#X connect 4 0 5 0;
#X connect 6 0 5 1;
#X connect 8 0 9 0;
#X connect 9 0 10 0;
#X connect 10 0 1 0;
#X connect 10 1 2 0;
#X connect 10 2 3 0;
#X connect 12 0 8 0;
#X restore 567 178 pd player;
#X obj 567 224 ps.mixch~;
#X connect 1 0 3 0;
#X connect 3 0 4 0;
#X connect 4 0 0 0;
#X connect 4 1 0 1;
#X connect 5 0 6 0;
#X connect 6 0 7 0;
#X connect 7 0 0 0;
#X connect 7 1 0 1;
#X connect 8 0 9 0;
#X connect 9 0 10 0;
#X connect 10 0 0 0;
#X connect 10 1 0 1;
#X connect 11 0 12 0;
#X connect 12 0 13 0;
#X connect 13 0 0 0;
#X connect 13 1 0 1;
