#N canvas 395 70 1306 681 10;
#X msg 53 169 close;
#X obj 45 8 cnv 15 440 60 empty empty empty 20 12 0 14 -200075 -66577
0;
#X msg 44 142 devices;
#X obj 44 256 s;
#X obj 44 234 serial_print any;
#X text 46 88 Requires [comport] object \; install under Help > Find
Externals, f 72;
#X text 52 16 [serial_print]: abstraction that works with Arduinos'
Serial.print() and Serial.println() functions (with the use of [comport]).
It was written by Alexandros Drymonitis. \; See https://github.com/alexdrymonitis/Arduino_Pd
;
#X floatatom 268 221 5 0 0 0 - - -;
#X obj 268 148 r count:;
#X obj 478 155 r pressed:;
#X obj 478 204 bng 15 250 50 0 empty empty empty 17 7 0 10 -262144
-1 -1;
#X floatatom 338 221 5 0 0 0 - - -;
#X obj 338 148 r difference:;
#X obj 430 301 select 1 -1;
#X obj 430 333 bng 15 250 50 0 empty empty empty 17 7 0 10 -262144
-1 -1;
#X obj 461 333 bng 15 250 50 0 empty empty empty 17 7 0 10 -262144
-1 -1;
#X obj 390 563 f;
#X floatatom 378 500 5 0 0 0 - - -;
#X obj 378 519 clip 0 255;
#X obj 82 525 t b b b;
#X text 376 481 out 2;
#X obj 82 459 bng 15 250 50 0 empty empty empty 17 7 0 10 -262144 -1
-1;
#X obj 250 597 s rgb;
#X obj 2 141 r rgb;
#X text 80 444 send rgb values;
#X obj 241 408 hsl 128 15 0 255 0 0 empty empty empty -2 -8 0 10 -258113
-1 -1 5200 1;
#X obj 311 427 hsl 128 15 0 255 0 0 empty empty empty -2 -8 0 10 -4034
-1 -1 7900 1;
#X obj 381 448 hsl 128 15 0 255 0 0 empty empty empty -2 -8 0 10 -4160
-1 -1 11700 1;
#X obj 378 539 t b f;
#X obj 320 563 f;
#X floatatom 308 500 5 0 0 0 - - -;
#X obj 308 519 clip 0 255;
#X obj 308 539 t b f;
#X obj 250 563 f;
#X floatatom 238 500 5 0 0 0 - - -;
#X obj 238 519 clip 0 255;
#X obj 238 539 t b f;
#X text 306 481 out 1;
#X text 236 481 out 0;
#X obj 269 276 % 20;
#X floatatom 269 317 5 0 0 0 - - -;
#X floatatom 617 219 5 0 0 0 - - -;
#X floatatom 709 219 5 0 0 0 - - -;
#X obj 815 147 r button:;
#X floatatom 815 201 5 0 0 0 - - -;
#X floatatom 619 400 5 0 0 0 - - -;
#X obj 619 327 r proximity:;
#X floatatom 711 400 5 0 0 0 - - -;
#X obj 711 327 r ambientlight:;
#X floatatom 822 401 5 0 0 0 - - -;
#X obj 822 328 r whitelight:;
#X obj 617 146 r jx:;
#X obj 709 146 r jy:;
#X floatatom 549 570 5 0 0 0 - - -;
#X floatatom 641 570 5 0 0 0 - - -;
#X floatatom 752 571 5 0 0 0 - - -;
#X obj 550 497 r x:;
#X obj 641 497 r y:;
#X obj 752 498 r z:;
#X obj 82 492 bangfilter 100;
#X obj 44 212 comport 1 9600;
#X obj 936 102 ctlin 1;
#X floatatom 936 130 5 0 0 0 - - -;
#X floatatom 987 130 5 0 0 0 - - -;
#X floatatom 1039 130 5 0 0 0 - - -;
#X floatatom 1090 132 5 0 0 0 - - -;
#X obj 987 102 ctlin 2;
#X obj 1039 102 ctlin 3;
#X obj 1090 102 ctlin 4;
#X floatatom 939 247 5 0 0 0 - - -;
#X floatatom 1001 246 5 0 0 0 - - -;
#X floatatom 1066 245 5 0 0 0 - - -;
#X floatatom 1139 248 5 0 0 0 - - -;
#X obj 939 219 ctlin 51;
#X obj 1001 218 ctlin 52;
#X obj 1066 217 ctlin 53;
#X obj 1139 218 ctlin 54;
#X msg 104 169 open 1;
#X connect 0 0 60 0;
#X connect 2 0 60 0;
#X connect 4 0 3 0;
#X connect 4 1 3 1;
#X connect 7 0 39 0;
#X connect 8 0 7 0;
#X connect 9 0 10 0;
#X connect 11 0 13 0;
#X connect 12 0 11 0;
#X connect 13 0 14 0;
#X connect 13 1 15 0;
#X connect 16 0 22 0;
#X connect 17 0 18 0;
#X connect 18 0 28 0;
#X connect 19 0 16 0;
#X connect 19 1 29 0;
#X connect 19 2 33 0;
#X connect 21 0 59 0;
#X connect 23 0 60 0;
#X connect 25 0 34 0;
#X connect 26 0 30 0;
#X connect 27 0 17 0;
#X connect 28 0 21 0;
#X connect 28 1 16 1;
#X connect 29 0 22 0;
#X connect 30 0 31 0;
#X connect 31 0 32 0;
#X connect 32 0 21 0;
#X connect 32 1 29 1;
#X connect 33 0 22 0;
#X connect 34 0 35 0;
#X connect 35 0 36 0;
#X connect 36 0 21 0;
#X connect 36 1 33 1;
#X connect 39 0 40 0;
#X connect 43 0 44 0;
#X connect 46 0 45 0;
#X connect 48 0 47 0;
#X connect 50 0 49 0;
#X connect 51 0 41 0;
#X connect 52 0 42 0;
#X connect 56 0 53 0;
#X connect 57 0 54 0;
#X connect 58 0 55 0;
#X connect 59 0 19 0;
#X connect 60 0 4 0;
#X connect 61 0 62 0;
#X connect 66 0 63 0;
#X connect 67 0 64 0;
#X connect 68 0 65 0;
#X connect 73 0 69 0;
#X connect 74 0 70 0;
#X connect 75 0 71 0;
#X connect 76 0 72 0;
#X connect 77 0 60 0;
