#N canvas 80 128 1448 860 10;
#X obj 572 329 coll;
#C restore;
#X obj 478 158 msgfile;
#X msg 567 76 prev;
#X msg 572 283 clear;
#X obj 478 255 t s b;
#X msg 488 76 rewind;
#X obj 548 76 bng 15 250 50 0 empty empty empty 17 7 0 10 -262144 -1
-1;
#X obj 567 103 t b a;
#X floatatom 286 395 5 0 0 0 - - -;
#X obj 478 181 tosymbol;
#X obj 478 230 unpack s f;
#X obj 478 207 6_killspaces;
#X obj 478 282 6_csv;
#X obj 727 11 cnv 15 380 60 empty empty empty 20 12 0 14 -262130 -66577
0;
#X text 739 15 [6_csv];
#X text 741 30 Parsing comma separated values \, output with index
;
#X msg 478 14 read psvdata/sampledata7.txt cr;
#X obj 571 490 bng 15 250 50 0 empty empty empty 17 7 0 10 -262144
-1 -1;
#X obj 588 490 bng 15 250 50 0 empty empty empty 17 7 0 10 -262144
-1 -1;
#X obj 606 490 bng 15 250 50 0 empty empty empty 17 7 0 10 -262144
-1 -1;
#X obj 623 490 bng 15 250 50 0 empty empty empty 17 7 0 10 -262144
-1 -1;
#X obj 641 490 bng 15 250 50 0 empty empty empty 17 7 0 10 -262144
-1 -1;
#X obj 658 490 bng 15 250 50 0 empty empty empty 17 7 0 10 -262144
-1 -1;
#X obj 676 490 bng 15 250 50 0 empty empty empty 17 7 0 10 -262144
-1 -1;
#X obj 572 372 6_addspaces;
#X obj 571 461 select x o * - ^ #;
#X obj 571 437 6_iter;
#X obj 572 394 unpack s f;
#X obj 571 416 fromsymbol;
#X obj 435 309 unpack f s;
#X floatatom 435 336 5 0 0 0 - - -;
#X floatatom 313 311 10 0 0 0 - - -;
#X obj 313 284 expr 60000 / $f1;
#X floatatom 313 201 8 0 0 1 bpm - -;
#X obj 286 345 metro;
#X obj 286 252 tgl 15 0 empty empty empty 17 7 0 10 -262144 -1 -1 0
1;
#X obj 286 371 6_cup 1 1;
#X obj 286 417 select 5;
#X msg 441 405 1;
#X floatatom 328 226 5 0 0 0 - - -;
#X obj 313 250 * 2;
#X msg 484 38 read psvdata/sampledata8.txt cr;
#X msg 640 119 goto \$1;
#X floatatom 606 254 5 0 0 0 - - -;
#X msg 640 168 where;
#X floatatom 640 101 5 0 0 0 - - -;
#X obj 606 233 - 1;
#X obj 640 142 t b b a;
#X obj 101 669 6_setmessage;
#X msg 101 693 x\\\,x\\\,*o\\\,*-\\\,*\\\,ox\\\,k\\\,x*-\\\,k\\\,#
;
#X obj 241 640 6_setmessage;
#X msg 241 664 k\ ;
#X obj 313 150 loadbang;
#X msg 313 175 170;
#X obj 383 464 random 10;
#X obj 383 442 t b;
#X floatatom 383 494 5 0 0 0 - - -;
#X obj 383 539 tgl 15 0 empty empty empty 17 7 0 10 -262144 -1 -1 0
1;
#X obj 383 598 random 10;
#X floatatom 383 628 5 0 0 0 - - -;
#X obj 383 571 sel 1;
#X obj 383 513 > 7;
#X obj 383 682 spigot;
#X obj 416 655 tgl 15 0 empty empty empty 17 7 0 10 -262144 -1 -1 0
1;
#X msg 284 37 read psvdata/sampledata9.txt cr;
#X connect 0 0 24 0;
#X connect 1 0 9 0;
#X connect 1 1 46 0;
#X connect 2 0 7 0;
#X connect 3 0 0 0;
#X connect 4 0 12 0;
#X connect 4 1 3 0;
#X connect 5 0 1 0;
#X connect 6 0 1 0;
#X connect 7 0 1 0;
#X connect 7 1 1 0;
#X connect 8 0 0 0;
#X connect 8 0 37 0;
#X connect 9 0 11 0;
#X connect 10 0 4 0;
#X connect 10 0 48 0;
#X connect 11 0 10 0;
#X connect 12 0 0 0;
#X connect 12 0 29 0;
#X connect 16 0 1 0;
#X connect 24 0 27 0;
#X connect 25 0 17 0;
#X connect 25 1 18 0;
#X connect 25 2 19 0;
#X connect 25 3 20 0;
#X connect 25 4 21 0;
#X connect 25 5 22 0;
#X connect 25 6 23 0;
#X connect 26 0 25 0;
#X connect 27 0 28 0;
#X connect 27 0 50 0;
#X connect 28 0 26 0;
#X connect 29 0 30 0;
#X connect 30 0 37 1;
#X connect 31 0 34 1;
#X connect 32 0 31 0;
#X connect 33 0 40 0;
#X connect 34 0 36 0;
#X connect 35 0 34 0;
#X connect 36 0 8 0;
#X connect 37 0 38 0;
#X connect 38 0 36 1;
#X connect 38 0 55 0;
#X connect 39 0 40 1;
#X connect 40 0 32 0;
#X connect 41 0 1 0;
#X connect 42 0 47 0;
#X connect 44 0 1 0;
#X connect 45 0 42 0;
#X connect 46 0 43 0;
#X connect 47 0 44 0;
#X connect 47 1 1 0;
#X connect 47 2 1 0;
#X connect 48 0 49 0;
#X connect 50 0 51 0;
#X connect 52 0 53 0;
#X connect 53 0 33 0;
#X connect 54 0 56 0;
#X connect 55 0 54 0;
#X connect 56 0 61 0;
#X connect 57 0 60 0;
#X connect 58 0 59 0;
#X connect 59 0 62 0;
#X connect 60 0 58 0;
#X connect 61 0 57 0;
#X connect 62 0 45 0;
#X connect 63 0 62 1;
#X connect 64 0 1 0;
