#N canvas 43 29 1784 684 12;
#X msg 192 76 close;
#X msg 192 54 devices;
#X obj 192 142 s;
#X obj 192 120 serial_print any;
#X obj 160 25 r digout;
#X msg 294 57 open 4;
#X obj 486 20 r touch_values:;
#X obj 1557 309 bng 15 250 50 0 empty empty empty 17 7 0 10 -262144
-1 -1;
#X obj 1585 399 f;
#X obj 1557 280 t b f;
#X obj 1584 445 s digout;
#X obj 1557 362 t b b;
#X obj 192 98 comport 1 9600;
#X obj 1557 334 bangfilter 20;
#X obj 490 62 unpack f f f f f f f s, f 65;
#X obj 1545 399 f 20;
#X floatatom 1557 248 5 0 0 0 - - -;
#X obj 401 137 ps.scale 700 6000 0 1;
#X obj 562 137 ps.scale 700 6000 0 1;
#X obj 724 138 ps.scale 700 6000 0 1;
#X obj 885 138 ps.scale 700 6000 0 1;
#X obj 1046 138 ps.scale 700 6000 0 1;
#X obj 1208 139 ps.scale 700 6000 0 1;
#X obj 1369 139 ps.scale 700 6000 0 1;
#X obj 1560 193 hsl 128 15 0 1 0 0 empty empty empty -2 -8 0 10 -262144
-1 -1 0 1;
#X obj 1557 220 * 255;
#X obj 401 164 > 0.5;
#X obj 562 164 > 0.5;
#X obj 724 165 > 0.5;
#X obj 885 165 > 0.5;
#X obj 1046 165 > 0.5;
#X obj 1208 166 > 0.5;
#X obj 1369 166 > 0.5;
#X obj 401 193 tgl 15 0 empty empty empty 17 7 0 10 -262144 -1 -1 0
1;
#X obj 562 193 tgl 15 0 empty empty empty 17 7 0 10 -262144 -1 -1 0
1;
#X obj 401 465 bng 15 250 50 0 empty empty empty 17 7 0 10 -262144
-1 -1;
#X obj 403 569 f;
#X obj 401 440 t b f;
#X obj 402 615 s digout;
#X obj 375 517 t b b;
#X obj 401 216 change;
#X floatatom 401 413 5 0 0 0 - - -;
#X obj 401 389 clip 0 255;
#X obj 401 488 bangfilter 20;
#X obj 401 310 * 255;
#X obj 401 359 line;
#X msg 401 334 \$1 500;
#X obj 376 569 f 3;
#X obj 562 466 bng 15 250 50 0 empty empty empty 17 7 0 10 -262144
-1 -1;
#X obj 564 570 f;
#X obj 562 441 t b f;
#X obj 563 616 s digout;
#X obj 536 518 t b b;
#X obj 562 217 change;
#X floatatom 562 414 5 0 0 0 - - -;
#X obj 562 390 clip 0 255;
#X obj 562 489 bangfilter 20;
#X obj 562 311 * 255;
#X obj 562 360 line;
#X msg 562 335 \$1 500;
#X obj 537 570 f 4;
#X obj 724 191 tgl 15 0 empty empty empty 17 7 0 10 -262144 -1 -1 0
1;
#X obj 724 464 bng 15 250 50 0 empty empty empty 17 7 0 10 -262144
-1 -1;
#X obj 726 568 f;
#X obj 724 439 t b f;
#X obj 725 614 s digout;
#X obj 698 516 t b b;
#X obj 724 215 change;
#X floatatom 724 412 5 0 0 0 - - -;
#X obj 724 388 clip 0 255;
#X obj 724 487 bangfilter 20;
#X obj 724 309 * 255;
#X obj 724 358 line;
#X msg 724 333 \$1 500;
#X obj 699 568 f 6;
#X obj 885 191 tgl 15 0 empty empty empty 17 7 0 10 -262144 -1 -1 0
1;
#X obj 885 464 bng 15 250 50 0 empty empty empty 17 7 0 10 -262144
-1 -1;
#X obj 887 568 f;
#X obj 885 439 t b f;
#X obj 886 614 s digout;
#X obj 859 516 t b b;
#X obj 885 215 change;
#X floatatom 885 412 5 0 0 0 - - -;
#X obj 885 388 clip 0 255;
#X obj 885 487 bangfilter 20;
#X obj 885 309 * 255;
#X obj 885 358 line;
#X msg 885 333 \$1 500;
#X obj 860 568 f 9;
#X obj 1046 191 tgl 15 0 empty empty empty 17 7 0 10 -262144 -1 -1
0 1;
#X obj 1046 464 bng 15 250 50 0 empty empty empty 17 7 0 10 -262144
-1 -1;
#X obj 1048 568 f;
#X obj 1046 439 t b f;
#X obj 1047 614 s digout;
#X obj 1020 516 t b b;
#X obj 1046 215 change;
#X floatatom 1046 412 5 0 0 0 - - -;
#X obj 1046 388 clip 0 255;
#X obj 1046 487 bangfilter 20;
#X obj 1046 309 * 255;
#X obj 1046 358 line;
#X msg 1046 333 \$1 500;
#X obj 1013 568 f 10;
#X obj 1208 192 tgl 15 0 empty empty empty 17 7 0 10 -262144 -1 -1
0 1;
#X obj 1208 465 bng 15 250 50 0 empty empty empty 17 7 0 10 -262144
-1 -1;
#X obj 1210 569 f;
#X obj 1208 440 t b f;
#X obj 1209 615 s digout;
#X obj 1182 517 t b b;
#X obj 1208 216 change;
#X floatatom 1208 413 5 0 0 0 - - -;
#X obj 1208 389 clip 0 255;
#X obj 1208 488 bangfilter 20;
#X obj 1208 310 * 255;
#X obj 1208 359 line;
#X msg 1208 334 \$1 500;
#X obj 1175 569 f 16;
#X obj 1369 195 tgl 15 0 empty empty empty 17 7 0 10 -262144 -1 -1
0 1;
#X obj 1369 468 bng 15 250 50 0 empty empty empty 17 7 0 10 -262144
-1 -1;
#X obj 1371 572 f;
#X obj 1369 443 t b f;
#X obj 1370 618 s digout;
#X obj 1343 520 t b b;
#X obj 1369 219 change;
#X floatatom 1369 416 5 0 0 0 - - -;
#X obj 1369 392 clip 0 255;
#X obj 1369 491 bangfilter 20;
#X obj 1369 313 * 255;
#X obj 1369 362 line;
#X msg 1369 337 \$1 500;
#X obj 1336 572 f 17;
#X connect 0 0 12 0;
#X connect 1 0 12 0;
#X connect 3 0 2 0;
#X connect 3 1 2 1;
#X connect 4 0 12 0;
#X connect 5 0 12 0;
#X connect 6 0 14 0;
#X connect 7 0 13 0;
#X connect 8 0 10 0;
#X connect 9 0 7 0;
#X connect 9 1 8 1;
#X connect 11 0 8 0;
#X connect 11 1 15 0;
#X connect 12 0 3 0;
#X connect 13 0 11 0;
#X connect 14 0 17 0;
#X connect 14 1 18 0;
#X connect 14 2 19 0;
#X connect 14 3 20 0;
#X connect 14 4 21 0;
#X connect 14 5 22 0;
#X connect 14 6 23 0;
#X connect 15 0 10 0;
#X connect 16 0 9 0;
#X connect 17 0 26 0;
#X connect 18 0 27 0;
#X connect 19 0 28 0;
#X connect 20 0 29 0;
#X connect 21 0 30 0;
#X connect 22 0 31 0;
#X connect 23 0 32 0;
#X connect 24 0 25 0;
#X connect 25 0 16 0;
#X connect 26 0 33 0;
#X connect 27 0 34 0;
#X connect 28 0 61 0;
#X connect 29 0 75 0;
#X connect 30 0 89 0;
#X connect 31 0 103 0;
#X connect 32 0 117 0;
#X connect 33 0 40 0;
#X connect 34 0 53 0;
#X connect 35 0 43 0;
#X connect 36 0 38 0;
#X connect 37 0 35 0;
#X connect 37 1 36 1;
#X connect 39 0 36 0;
#X connect 39 1 47 0;
#X connect 40 0 44 0;
#X connect 41 0 37 0;
#X connect 42 0 41 0;
#X connect 43 0 39 0;
#X connect 44 0 46 0;
#X connect 45 0 42 0;
#X connect 46 0 45 0;
#X connect 47 0 38 0;
#X connect 48 0 56 0;
#X connect 49 0 51 0;
#X connect 50 0 48 0;
#X connect 50 1 49 1;
#X connect 52 0 49 0;
#X connect 52 1 60 0;
#X connect 53 0 57 0;
#X connect 54 0 50 0;
#X connect 55 0 54 0;
#X connect 56 0 52 0;
#X connect 57 0 59 0;
#X connect 58 0 55 0;
#X connect 59 0 58 0;
#X connect 60 0 51 0;
#X connect 61 0 67 0;
#X connect 62 0 70 0;
#X connect 63 0 65 0;
#X connect 64 0 62 0;
#X connect 64 1 63 1;
#X connect 66 0 63 0;
#X connect 66 1 74 0;
#X connect 67 0 71 0;
#X connect 68 0 64 0;
#X connect 69 0 68 0;
#X connect 70 0 66 0;
#X connect 71 0 73 0;
#X connect 72 0 69 0;
#X connect 73 0 72 0;
#X connect 74 0 65 0;
#X connect 75 0 81 0;
#X connect 76 0 84 0;
#X connect 77 0 79 0;
#X connect 78 0 76 0;
#X connect 78 1 77 1;
#X connect 80 0 77 0;
#X connect 80 1 88 0;
#X connect 81 0 85 0;
#X connect 82 0 78 0;
#X connect 83 0 82 0;
#X connect 84 0 80 0;
#X connect 85 0 87 0;
#X connect 86 0 83 0;
#X connect 87 0 86 0;
#X connect 88 0 79 0;
#X connect 89 0 95 0;
#X connect 90 0 98 0;
#X connect 91 0 93 0;
#X connect 92 0 90 0;
#X connect 92 1 91 1;
#X connect 94 0 91 0;
#X connect 94 1 102 0;
#X connect 95 0 99 0;
#X connect 96 0 92 0;
#X connect 97 0 96 0;
#X connect 98 0 94 0;
#X connect 99 0 101 0;
#X connect 100 0 97 0;
#X connect 101 0 100 0;
#X connect 102 0 93 0;
#X connect 103 0 109 0;
#X connect 104 0 112 0;
#X connect 105 0 107 0;
#X connect 106 0 104 0;
#X connect 106 1 105 1;
#X connect 108 0 105 0;
#X connect 108 1 116 0;
#X connect 109 0 113 0;
#X connect 110 0 106 0;
#X connect 111 0 110 0;
#X connect 112 0 108 0;
#X connect 113 0 115 0;
#X connect 114 0 111 0;
#X connect 115 0 114 0;
#X connect 116 0 107 0;
#X connect 117 0 123 0;
#X connect 118 0 126 0;
#X connect 119 0 121 0;
#X connect 120 0 118 0;
#X connect 120 1 119 1;
#X connect 122 0 119 0;
#X connect 122 1 130 0;
#X connect 123 0 127 0;
#X connect 124 0 120 0;
#X connect 125 0 124 0;
#X connect 126 0 122 0;
#X connect 127 0 129 0;
#X connect 128 0 125 0;
#X connect 129 0 128 0;
#X connect 130 0 121 0;
