#N canvas 265 56 1288 860 10;
#X msg 53 169 close;
#X obj 45 8 cnv 15 440 60 empty empty empty 20 12 0 14 -200075 -66577
0;
#X msg 44 142 devices;
#X floatatom 104 150 5 0 0 0 - - -;
#X msg 104 169 open \$1;
#X obj 44 256 s;
#X obj 44 234 serial_print any;
#X text 10 87 Requires [comport] object \; install under Help > Find
Externals, f 72;
#X text 52 16 [serial_print]: abstraction that works with Arduinos'
Serial.print() and Serial.println() functions (with the use of [comport]).
It was written by Alexandros Drymonitis. \; See https://github.com/alexdrymonitis/Arduino_Pd
;
#X floatatom 268 221 5 0 0 0 - - -;
#X symbolatom 137 255 20 0 0 0 - - -;
#X obj 268 148 r count:;
#X obj 436 148 r pressed:;
#X obj 436 197 bng 15 250 50 0 empty empty empty 17 7 0 10 -262144
-1 -1;
#X floatatom 338 221 5 0 0 0 - - -;
#X obj 338 148 r difference:;
#X obj 430 301 select 1 -1;
#X obj 430 333 bng 15 250 50 0 empty empty empty 17 7 0 10 -262144
-1 -1;
#X obj 461 333 bng 15 250 50 0 empty empty empty 17 7 0 10 -262144
-1 -1;
#X obj 2 141 r rgb;
#X obj 269 276 % 20;
#X floatatom 269 317 5 0 0 0 - - -;
#X floatatom 558 222 5 0 0 0 - - -;
#X floatatom 650 222 5 0 0 0 - - -;
#X floatatom 761 223 5 0 0 0 - - -;
#X obj 559 149 r x:;
#X obj 650 149 r y:;
#X obj 761 150 r z:;
#X text 298 123 Twist encoder;
#X text 581 122 Motion sensor;
#X obj 844 158 r digital_values:;
#X floatatom 844 266 5 0 0 0 - - -;
#X floatatom 990 267 5 0 0 1 - - -;
#X obj 986 160 r analog_values:;
#X obj 989 187 unpack f;
#X obj 844 237 unpack f;
#X text 843 136 pushbutton;
#X text 985 136 photocell;
#X obj 562 523 s digout;
#X obj 2 115 r digout;
#X obj 535 425 t b b;
#X text 407 477 number of output pin;
#X obj 563 477 f 1;
#X obj 538 401 bng 15 250 50 0 empty empty empty 17 7 0 10 -262144
-1 -1;
#X obj 536 477 f 6;
#X text 563 405 on;
#X obj 633 523 s digout;
#X obj 606 425 t b b;
#X obj 609 401 bng 15 250 50 0 empty empty empty 17 7 0 10 -262144
-1 -1;
#X obj 607 477 f 6;
#X text 634 405 off;
#X obj 634 477 f 0;
#X obj 126 414 r touch_values:;
#X obj 126 445 unpack f f f f;
#X floatatom 115 490 5 0 0 0 - - -;
#X floatatom 155 495 5 0 0 0 - - -;
#X floatatom 198 493 5 0 0 0 - - -;
#X floatatom 246 491 5 0 0 0 - - -;
#X obj 966 577 s rgb;
#X obj 966 508 unpack f f f;
#X obj 947 430 t b l;
#X msg 1011 403 0 255 255;
#X msg 1010 384 255 0 255;
#X msg 1009 364 255 255 0;
#X text 1079 365 yellow;
#X text 1079 385 magenta;
#X text 1079 403 cyan;
#X msg 871 361 255 0 0;
#X msg 872 380 0 255 0;
#X msg 873 400 0 0 255;
#X text 941 362 red;
#X text 941 382 green;
#X text 941 400 blue;
#X obj 966 538 pack f f f, f 27;
#X obj 44 212 comport 2 9600;
#X connect 0 0 74 0;
#X connect 2 0 74 0;
#X connect 3 0 4 0;
#X connect 4 0 74 0;
#X connect 6 0 5 0;
#X connect 6 1 5 1;
#X connect 6 1 10 0;
#X connect 9 0 20 0;
#X connect 11 0 9 0;
#X connect 12 0 13 0;
#X connect 14 0 16 0;
#X connect 15 0 14 0;
#X connect 16 0 17 0;
#X connect 16 1 18 0;
#X connect 19 0 74 0;
#X connect 20 0 21 0;
#X connect 25 0 22 0;
#X connect 26 0 23 0;
#X connect 27 0 24 0;
#X connect 30 0 35 0;
#X connect 33 0 34 0;
#X connect 34 0 32 0;
#X connect 35 0 31 0;
#X connect 39 0 74 0;
#X connect 40 0 42 0;
#X connect 40 1 44 0;
#X connect 42 0 38 0;
#X connect 43 0 40 0;
#X connect 44 0 38 0;
#X connect 47 0 51 0;
#X connect 47 1 49 0;
#X connect 48 0 47 0;
#X connect 49 0 46 0;
#X connect 51 0 46 0;
#X connect 52 0 53 0;
#X connect 53 0 54 0;
#X connect 53 1 55 0;
#X connect 53 2 56 0;
#X connect 53 3 57 0;
#X connect 59 0 73 0;
#X connect 59 1 73 1;
#X connect 59 2 73 2;
#X connect 60 0 73 0;
#X connect 60 1 59 0;
#X connect 61 0 60 0;
#X connect 62 0 60 0;
#X connect 63 0 60 0;
#X connect 67 0 60 0;
#X connect 68 0 60 0;
#X connect 69 0 60 0;
#X connect 73 0 58 0;
#X connect 74 0 6 0;
