#N canvas 0 23 960 586 12;
#X obj 383 196 t b f;
#X obj 326 196 f;
#X obj 326 244 &&;
#X obj 328 297 select 1;
#X obj 325 329 bng 15 250 50 0 empty empty empty 17 7 0 10 -262144
-1 -1;
#X obj 326 267 change;
#X obj 326 220 == \$1;
#X obj 410 221 == \$2;
#X obj 325 140 inlet;
#X obj 379 141 inlet;
#X obj 322 375 outlet;
#X connect 0 0 1 0;
#X connect 0 1 7 0;
#X connect 1 0 6 0;
#X connect 2 0 5 0;
#X connect 3 0 4 0;
#X connect 4 0 10 0;
#X connect 5 0 3 0;
#X connect 6 0 2 0;
#X connect 7 0 2 1;
#X connect 8 0 1 0;
#X connect 9 0 0 0;
