#N canvas 152 59 1418 767 10;
#X msg 53 169 close;
#X obj 45 8 cnv 15 440 60 empty empty empty 20 12 0 14 -200075 -66577
0;
#X msg 44 142 devices;
#X obj 44 256 s;
#X obj 44 234 serial_print any;
#X text 46 88 Requires [comport] object \; install under Help > Find
Externals, f 72;
#X text 52 16 [serial_print]: abstraction that works with Arduinos'
Serial.print() and Serial.println() functions (with the use of [comport]).
It was written by Alexandros Drymonitis. \; See https://github.com/alexdrymonitis/Arduino_Pd
;
#X floatatom 268 221 5 0 0 0 - - -;
#X symbolatom 137 255 20 0 0 0 - - -;
#X obj 478 204 bng 15 250 50 0 empty empty empty 17 7 0 10 -262144
-1 -1;
#X obj 299 692 s rgb;
#X obj 2 141 r rgb;
#X floatatom 269 317 5 0 0 0 - - -;
#X obj 44 212 comport 1 9600;
#X obj 268 148 r count1:;
#X obj 478 155 r pressed1:;
#X floatatom 595 222 5 0 0 0 - - -;
#X obj 805 205 bng 15 250 50 0 empty empty empty 17 7 0 10 -262144
-1 -1;
#X floatatom 602 309 5 0 0 0 - - -;
#X obj 595 149 r count2:;
#X obj 805 156 r pressed2:;
#X obj 299 653 pack f f f f f f, f 27;
#X obj 299 623 unpack f f f;
#X obj 388 623 unpack f f f;
#X obj 280 545 t b l;
#X msg 344 518 0 255 255;
#X msg 343 499 255 0 255;
#X msg 342 479 255 255 0;
#X text 412 480 yellow;
#X text 412 500 magenta;
#X text 412 518 cyan;
#X msg 204 476 255 0 0;
#X msg 205 495 0 255 0;
#X msg 206 515 0 0 255;
#X text 274 477 red;
#X text 274 497 green;
#X text 274 515 blue;
#X obj 579 546 t b l;
#X msg 643 519 0 255 255;
#X msg 642 500 255 0 255;
#X msg 641 480 255 255 0;
#X text 711 481 yellow;
#X text 711 501 magenta;
#X text 711 519 cyan;
#X msg 503 477 255 0 0;
#X msg 504 496 0 255 0;
#X msg 505 516 0 0 255;
#X text 573 478 red;
#X text 573 498 green;
#X text 573 516 blue;
#X msg 104 169 open 1;
#X obj 987 219 grid grid1 200 0 5 200 0 5 1 20 20 5 5 1027 379;
#X floatatom 1064 113 5 0 0 0 - - -;
#X floatatom 1110 112 5 0 0 0 - - -;
#X obj 1066 140 pack f f;
#X msg 1063 88 bang;
#X msg 987 139 values \$1 \$2;
#X msg 1167 190 color 100 100 100;
#X obj 269 276 mod 6;
#X obj 596 277 mod 6;
#X obj 1167 166 loadbang;
#X obj 314 394 bng 15 250 50 0 empty empty empty 17 7 0 10 -262144
-1 -1;
#X obj 322 366 ps.match 1 1;
#X obj 412 386 bng 15 250 50 0 empty empty empty 17 7 0 10 -262144
-1 -1;
#X obj 413 366 ps.match 1 2;
#X obj 500 385 bng 15 250 50 0 empty empty empty 17 7 0 10 -262144
-1 -1;
#X obj 501 365 ps.match 1 3;
#X obj 595 385 bng 15 250 50 0 empty empty empty 17 7 0 10 -262144
-1 -1;
#X obj 596 365 ps.match 1 4;
#X obj 690 385 bng 15 250 50 0 empty empty empty 17 7 0 10 -262144
-1 -1;
#X obj 691 365 ps.match 1 5;
#X text 838 36 requires "unauthorized" Pd library \, object called
grid (only used to visualize 2d matrix);
#X connect 0 0 13 0;
#X connect 2 0 13 0;
#X connect 4 0 3 0;
#X connect 4 1 3 1;
#X connect 4 1 8 0;
#X connect 7 0 58 0;
#X connect 9 0 32 0;
#X connect 11 0 13 0;
#X connect 12 0 52 0;
#X connect 12 0 62 0;
#X connect 12 0 64 0;
#X connect 12 0 66 0;
#X connect 12 0 68 0;
#X connect 12 0 70 0;
#X connect 13 0 4 0;
#X connect 14 0 7 0;
#X connect 15 0 9 0;
#X connect 16 0 59 0;
#X connect 17 0 45 0;
#X connect 18 0 53 0;
#X connect 18 0 62 1;
#X connect 18 0 70 1;
#X connect 18 0 68 1;
#X connect 18 0 66 1;
#X connect 18 0 64 1;
#X connect 19 0 16 0;
#X connect 20 0 17 0;
#X connect 21 0 10 0;
#X connect 22 0 21 0;
#X connect 22 1 21 1;
#X connect 22 2 21 2;
#X connect 23 0 21 3;
#X connect 23 1 21 4;
#X connect 23 2 21 5;
#X connect 24 0 21 0;
#X connect 24 1 22 0;
#X connect 25 0 24 0;
#X connect 26 0 24 0;
#X connect 27 0 24 0;
#X connect 31 0 24 0;
#X connect 32 0 24 0;
#X connect 33 0 24 0;
#X connect 37 0 21 0;
#X connect 37 1 23 0;
#X connect 38 0 37 0;
#X connect 39 0 37 0;
#X connect 40 0 37 0;
#X connect 44 0 37 0;
#X connect 45 0 37 0;
#X connect 46 0 37 0;
#X connect 50 0 13 0;
#X connect 52 0 54 0;
#X connect 53 0 54 1;
#X connect 53 0 55 0;
#X connect 54 0 56 0;
#X connect 55 0 52 0;
#X connect 56 0 51 0;
#X connect 57 0 51 0;
#X connect 58 0 12 0;
#X connect 59 0 18 0;
#X connect 60 0 57 0;
#X connect 61 0 31 0;
#X connect 61 0 40 0;
#X connect 62 0 61 0;
#X connect 63 0 32 0;
#X connect 63 0 39 0;
#X connect 64 0 63 0;
#X connect 65 0 33 0;
#X connect 65 0 38 0;
#X connect 65 0 25 0;
#X connect 66 0 65 0;
#X connect 67 0 44 0;
#X connect 67 0 27 0;
#X connect 68 0 67 0;
#X connect 69 0 45 0;
#X connect 69 0 26 0;
#X connect 70 0 69 0;
