#N canvas 402 46 1418 767 10;
#X msg 53 169 close;
#X obj 45 8 cnv 15 440 60 empty empty empty 20 12 0 14 -200075 -66577
0;
#X msg 44 142 devices;
#X obj 44 256 s;
#X obj 44 234 serial_print any;
#X text 46 88 Requires [comport] object \; install under Help > Find
Externals, f 72;
#X text 52 16 [serial_print]: abstraction that works with Arduinos'
Serial.print() and Serial.println() functions (with the use of [comport]).
It was written by Alexandros Drymonitis. \; See https://github.com/alexdrymonitis/Arduino_Pd
;
#X floatatom 268 221 5 0 0 0 - - -;
#X symbolatom 137 255 20 0 0 0 - - -;
#X obj 478 204 bng 15 250 50 0 empty empty empty 17 7 0 10 -262144
-1 -1;
#X floatatom 338 221 5 0 0 0 - - -;
#X obj 430 301 select 1 -1;
#X obj 430 333 bng 15 250 50 0 empty empty empty 17 7 0 10 -262144
-1 -1;
#X obj 461 333 bng 15 250 50 0 empty empty empty 17 7 0 10 -262144
-1 -1;
#X obj 251 597 s rgb;
#X obj 2 141 r rgb;
#X floatatom 269 317 5 0 0 0 - - -;
#X obj 44 212 comport 1 9600;
#X obj 268 148 r count1:;
#X obj 338 148 r difference1:;
#X obj 478 155 r pressed1:;
#X floatatom 595 222 5 0 0 0 - - -;
#X obj 805 205 bng 15 250 50 0 empty empty empty 17 7 0 10 -262144
-1 -1;
#X floatatom 665 222 5 0 0 0 - - -;
#X obj 757 302 select 1 -1;
#X obj 757 334 bng 15 250 50 0 empty empty empty 17 7 0 10 -262144
-1 -1;
#X obj 788 334 bng 15 250 50 0 empty empty empty 17 7 0 10 -262144
-1 -1;
#X floatatom 596 318 5 0 0 0 - - -;
#X obj 595 149 r count2:;
#X obj 596 277 mod 20;
#X obj 269 276 mod 20;
#X obj 665 149 r difference2:;
#X obj 805 156 r pressed2:;
#X obj 251 558 pack f f f f f f, f 27;
#X obj 251 528 unpack f f f;
#X obj 340 528 unpack f f f;
#X obj 232 450 t b l;
#X msg 296 423 0 255 255;
#X msg 295 404 255 0 255;
#X msg 294 384 255 255 0;
#X text 364 385 yellow;
#X text 364 405 magenta;
#X text 364 423 cyan;
#X msg 156 381 255 0 0;
#X msg 157 400 0 255 0;
#X msg 158 420 0 0 255;
#X text 226 382 red;
#X text 226 402 green;
#X text 226 420 blue;
#X obj 531 451 t b l;
#X msg 595 424 0 255 255;
#X msg 594 405 255 0 255;
#X msg 593 385 255 255 0;
#X text 663 386 yellow;
#X text 663 406 magenta;
#X text 663 424 cyan;
#X msg 455 382 255 0 0;
#X msg 456 401 0 255 0;
#X msg 457 421 0 0 255;
#X text 525 383 red;
#X text 525 403 green;
#X text 525 421 blue;
#X msg 104 169 open 1;
#X connect 0 0 17 0;
#X connect 2 0 17 0;
#X connect 4 0 3 0;
#X connect 4 1 3 1;
#X connect 4 1 8 0;
#X connect 7 0 30 0;
#X connect 10 0 11 0;
#X connect 11 0 12 0;
#X connect 11 1 13 0;
#X connect 15 0 17 0;
#X connect 17 0 4 0;
#X connect 18 0 7 0;
#X connect 19 0 10 0;
#X connect 20 0 9 0;
#X connect 21 0 29 0;
#X connect 23 0 24 0;
#X connect 24 0 25 0;
#X connect 24 1 26 0;
#X connect 28 0 21 0;
#X connect 29 0 27 0;
#X connect 30 0 16 0;
#X connect 31 0 23 0;
#X connect 32 0 22 0;
#X connect 33 0 14 0;
#X connect 34 0 33 0;
#X connect 34 1 33 1;
#X connect 34 2 33 2;
#X connect 35 0 33 3;
#X connect 35 1 33 4;
#X connect 35 2 33 5;
#X connect 36 0 33 0;
#X connect 36 1 34 0;
#X connect 37 0 36 0;
#X connect 38 0 36 0;
#X connect 39 0 36 0;
#X connect 43 0 36 0;
#X connect 44 0 36 0;
#X connect 45 0 36 0;
#X connect 49 0 33 0;
#X connect 49 1 35 0;
#X connect 50 0 49 0;
#X connect 51 0 49 0;
#X connect 52 0 49 0;
#X connect 56 0 49 0;
#X connect 57 0 49 0;
#X connect 58 0 49 0;
#X connect 62 0 17 0;
